<?xml version="1.0" standalone="no"?>
<!DOCTYPE svg PUBLIC "-//W3C//DTD SVG 20010904//EN"
 "http://www.w3.org/TR/2001/REC-SVG-20010904/DTD/svg10.dtd">
<svg version="1.0" xmlns="http://www.w3.org/2000/svg"
 width="960.000000pt" height="960.000000pt" viewBox="0 0 960.000000 960.000000"
 preserveAspectRatio="xMidYMid meet">
<metadata>
Created by potrace 1.14, written by Peter Selinger 2001-2017
</metadata>
<g transform="translate(0.000000,960.000000) scale(0.100000,-0.100000)"
fill="#000000" stroke="none">
<path d="M5195 8220 c-16 -6 -8 -11 43 -26 34 -9 62 -22 62 -27 0 -5 6 -7 14
-4 15 6 89 -18 116 -37 34 -25 61 -36 86 -36 14 0 39 -9 55 -21 16 -11 34 -17
40 -13 7 4 9 3 6 -3 -4 -6 11 -23 33 -38 22 -15 40 -34 40 -42 0 -12 -3 -12
-16 1 -25 26 -29 18 -4 -9 28 -29 43 -24 30 11 -13 32 -12 37 0 29 6 -3 10 -1
10 4 0 6 -7 11 -15 11 -8 0 -19 9 -25 20 -6 11 -17 20 -25 20 -8 0 -15 5 -15
11 0 5 -4 7 -10 4 -5 -3 -10 -1 -10 4 0 6 -11 11 -25 11 -27 0 -95 33 -98 47
-2 11 -45 33 -66 33 -10 0 -21 3 -24 7 -4 4 -40 15 -80 25 -39 10 -79 20 -87
22 -8 3 -24 1 -35 -4z"/>
<path d="M4945 8181 c-66 -10 -90 -11 -93 -3 -2 7 -11 12 -20 12 -15 0 -15 -2
-2 -10 13 -8 11 -14 -12 -37 -25 -25 -30 -26 -60 -15 -34 12 -78 7 -78 -9 0
-5 -5 -9 -11 -9 -5 0 -7 5 -3 12 5 8 2 9 -10 5 -10 -4 -23 -7 -29 -7 -7 0 -6
-4 3 -10 11 -7 6 -10 -20 -10 -27 0 -32 -3 -20 -11 11 -8 8 -9 -15 -5 -16 4
-43 2 -60 -4 -28 -9 -27 -10 13 -6 23 2 40 0 36 -5 -3 -5 2 -6 10 -3 29 11 17
-4 -20 -26 -21 -11 -46 -20 -58 -19 -26 3 -186 -32 -186 -40 1 -19 20 -32 39
-26 25 8 29 -10 4 -19 -52 -18 -86 -35 -73 -35 8 -1 57 20 110 47 87 43 101
47 167 47 46 0 77 -5 85 -13 7 -7 9 -12 3 -11 -15 3 -95 -13 -99 -20 -2 -3 27
-6 65 -6 40 0 73 -5 80 -12 10 -10 6 -12 -17 -8 -47 7 -57 8 -87 7 -16 -1 -25
-6 -22 -12 4 -6 -10 -10 -34 -10 -34 0 -41 -3 -41 -19 0 -11 5 -23 10 -26 6
-4 8 -10 5 -15 -3 -5 3 -13 12 -19 23 -13 12 -14 -23 -1 -19 8 -30 7 -40 -1
-12 -10 -13 -8 -8 6 5 13 4 16 -4 11 -7 -4 -15 -1 -18 8 -4 10 -16 14 -37 11
-18 -2 -35 1 -39 8 -6 9 -11 8 -21 -3 -6 -8 -23 -14 -37 -13 -21 2 -21 1 5 -7
20 -6 31 -6 33 1 2 5 17 -4 34 -21 24 -25 27 -34 17 -46 -6 -8 -14 -12 -18 -9
-3 3 1 11 9 16 15 10 -61 5 -102 -7 -27 -8 -9 -34 23 -34 37 0 38 -20 2 -21
-58 -3 -88 -9 -91 -19 -2 -5 -8 -8 -13 -4 -5 3 -16 -2 -25 -10 -14 -15 -13
-16 13 -16 16 0 34 -5 40 -11 8 -8 13 -8 17 0 4 6 12 11 19 11 28 0 -14 -22
-46 -24 -39 -3 -76 -30 -53 -39 7 -3 19 -2 26 3 10 6 10 8 -1 12 -26 9 7 14
46 7 22 -3 32 -7 22 -8 -10 0 -15 -6 -12 -11 4 -6 3 -10 -2 -9 -4 1 -17 -1
-28 -5 -11 -4 -32 -12 -47 -18 -17 -6 -25 -15 -21 -22 12 -18 12 -37 1 -30 -5
3 -18 -2 -28 -12 -34 -34 -51 -46 -57 -40 -6 5 20 35 34 39 4 1 7 5 6 8 -1 4
9 10 24 14 19 4 23 9 15 17 -8 8 -15 8 -25 -1 -8 -6 -21 -9 -30 -5 -8 3 -18 1
-22 -5 -3 -6 1 -11 11 -11 15 0 14 -4 -6 -25 -13 -14 -30 -23 -37 -20 -8 2
-16 -2 -19 -10 -4 -8 -11 -15 -16 -15 -6 0 -8 7 -4 15 3 8 1 15 -4 15 -6 0
-10 -9 -10 -20 0 -11 -5 -20 -12 -20 -8 0 -7 -4 3 -12 8 -7 13 -12 11 -11 -6
3 -42 -37 -42 -47 0 -5 -8 -7 -17 -4 -17 5 -17 4 0 -9 12 -10 14 -17 8 -22 -6
-3 -11 -1 -11 4 0 6 -3 11 -7 11 -12 0 -81 -111 -94 -151 -7 -19 -16 -39 -21
-45 -5 -7 -11 -27 -13 -45 -5 -37 -29 -67 -39 -50 -4 6 -3 11 2 11 5 0 9 6 9
13 0 6 4 20 8 30 6 14 3 17 -14 14 -23 -4 -41 -17 -23 -17 7 0 12 -5 12 -11 0
-8 -4 -8 -14 1 -12 9 -15 8 -16 -7 -1 -43 -5 -61 -11 -57 -18 11 -15 46 8 78
13 20 21 42 17 49 -4 6 -4 9 1 5 4 -4 23 11 41 33 19 23 34 37 34 32 0 -4 8 7
16 24 9 18 20 30 25 27 5 -3 6 2 3 11 -5 13 -9 13 -23 3 -10 -8 -9 -4 4 10 18
22 20 22 26 5 7 -15 8 -16 8 -1 1 9 7 19 14 21 8 4 8 6 0 6 -6 1 2 15 17 31
17 19 27 39 25 51 -2 11 0 17 4 14 10 -6 33 19 26 27 -3 3 1 11 10 18 8 7 15
17 15 22 0 5 7 16 15 24 8 9 15 20 15 25 0 5 -7 9 -15 9 -8 0 -15 3 -15 6 0
11 42 44 57 44 7 0 13 5 13 10 0 6 8 10 17 10 9 0 13 3 10 7 -4 3 -2 12 4 20
9 9 8 13 0 13 -6 0 -11 -4 -11 -10 0 -5 -6 -10 -13 -10 -23 0 -114 -96 -102
-108 3 -4 10 0 15 8 6 8 10 10 10 4 0 -21 -58 -67 -77 -60 -9 4 -15 4 -11 1 3
-4 -17 -29 -45 -56 -28 -27 -47 -49 -41 -49 5 0 -3 -11 -18 -24 -15 -12 -24
-26 -20 -30 4 -4 2 -7 -3 -6 -25 5 -46 -1 -39 -12 4 -7 3 -8 -4 -4 -6 4 -27
-11 -48 -34 -20 -22 -41 -37 -46 -34 -6 4 -5 -3 1 -15 11 -19 10 -20 -14 -11
-22 8 -27 6 -37 -15 -6 -14 -15 -25 -20 -25 -4 0 -8 -6 -8 -14 0 -8 -7 -17
-16 -20 -10 -4 -14 -12 -10 -22 5 -12 2 -15 -10 -10 -14 5 -15 4 -4 -9 10 -12
10 -15 -4 -15 -9 0 -21 -10 -26 -22 l-9 -23 0 24 c-1 19 -4 21 -15 11 -8 -6
-12 -19 -9 -28 4 -13 3 -14 -5 -3 -16 22 -30 -15 -25 -64 4 -27 0 -53 -11 -74
-18 -34 -14 -53 10 -44 12 4 11 -1 -3 -26 -16 -28 -16 -33 -3 -42 11 -8 12
-12 3 -16 -7 -2 -13 -20 -13 -39 0 -21 -4 -33 -10 -29 -6 4 -8 9 -6 13 2 4 6
36 7 71 3 55 2 64 -13 67 -10 1 -18 -2 -18 -8 0 -6 -7 -8 -15 -4 -8 3 -15 0
-15 -6 0 -7 -4 -7 -12 0 -13 10 -31 -1 -37 -23 -4 -16 -11 -20 -11 -7 0 7 -11
12 -25 12 -14 0 -25 -4 -25 -10 0 -5 7 -7 16 -3 13 5 15 2 9 -18 -7 -22 -7
-23 10 -9 17 14 18 13 12 -9 -4 -18 -3 -21 6 -12 14 14 30 15 22 1 -3 -6 1 -7
9 -4 9 3 16 10 16 15 0 5 4 9 9 9 5 0 2 -15 -7 -32 -12 -24 -16 -56 -15 -118
3 -102 8 -148 16 -157 13 -12 7 -41 -8 -47 -13 -5 -14 -2 -4 15 8 15 8 19 0
15 -7 -5 -11 3 -12 21 -1 27 -1 27 -13 -7 -8 -21 -9 -37 -4 -41 6 -4 11 -27
12 -53 1 -25 7 -51 14 -58 9 -9 12 -9 12 0 0 7 4 12 9 12 8 0 2 -43 -14 -102
-6 -22 -4 -28 9 -28 9 0 16 8 16 20 0 11 6 20 13 20 28 0 45 36 40 84 -4 31
-2 46 6 46 8 0 10 -11 5 -35 -4 -23 -2 -35 5 -35 6 0 11 5 11 12 0 6 7 3 15
-8 14 -18 14 -18 15 6 0 14 3 20 8 14 4 -6 33 -11 66 -12 57 0 93 -11 128 -40
10 -8 15 -19 12 -24 -4 -6 2 -8 14 -4 13 4 22 1 26 -9 3 -9 10 -13 16 -10 5 3
10 -1 10 -11 0 -9 7 -22 16 -29 15 -10 15 -15 3 -40 -14 -29 -44 -49 -34 -22
6 14 -28 40 -109 86 -30 17 -53 21 -107 20 -38 -1 -69 -6 -69 -11 0 -5 -4 -7
-9 -4 -15 9 -80 -62 -86 -94 -1 -3 -8 -21 -16 -40 -27 -61 -30 -105 -8 -121
10 -7 19 -20 19 -28 0 -11 3 -12 11 -4 10 10 16 32 18 61 1 6 8 12 16 12 9 0
21 11 27 25 6 14 19 25 30 25 10 0 18 6 18 13 0 8 4 7 10 -3 8 -12 10 -11 10
6 0 24 39 61 74 70 20 5 27 0 41 -25 8 -17 20 -31 25 -31 6 0 10 -18 10 -40 0
-42 2 -43 80 -42 3 0 16 3 30 7 21 6 23 5 12 -6 -7 -8 -16 -14 -20 -15 -4 0
-20 -6 -35 -12 -37 -15 -42 -15 -61 4 -15 14 -16 14 -16 -5 0 -12 -5 -20 -10
-19 -31 8 -54 -148 -26 -171 9 -8 16 -22 16 -32 0 -20 44 -71 77 -88 28 -14
70 -14 75 0 4 12 93 49 119 49 37 0 38 24 3 63 -38 41 -44 44 -44 22 0 -15
-35 -53 -68 -72 -32 -19 -72 3 -42 22 6 4 8 10 6 14 -9 14 24 51 45 51 10 0
19 6 19 13 0 9 2 9 9 -1 6 -11 10 -10 15 4 6 16 8 16 16 4 7 -10 10 4 10 45 1
33 2 80 3 105 l2 45 -42 -1 c-30 -1 -43 4 -46 15 -3 9 -8 25 -12 36 -6 17 -5
17 5 5 9 -12 10 -11 5 8 -5 16 0 28 17 42 25 21 48 26 48 10 0 -5 7 -7 15 -4
8 4 15 1 15 -5 0 -19 17 -12 23 9 3 11 10 20 15 20 14 0 54 -70 56 -96 0 -13
6 -20 14 -16 10 3 10 8 3 15 -17 17 -13 31 4 17 16 -13 21 -1 6 16 -4 5 -5 34
-1 64 4 30 8 44 9 30 1 -20 3 -22 11 -10 5 8 10 25 10 38 0 13 4 20 10 17 6
-4 10 7 10 25 0 18 4 29 10 25 6 -3 10 -3 11 2 0 4 2 18 5 31 2 12 1 22 -4 22
-4 0 -7 18 -8 39 0 22 2 38 5 36 4 -2 7 12 7 31 2 38 -4 40 -11 4 -6 -32 -9
-33 -30 -10 -13 15 -15 19 -4 15 10 -4 15 2 16 16 2 27 24 43 35 26 5 -8 8 -4
8 11 0 12 4 22 10 22 5 0 7 6 4 14 -3 8 -1 17 5 21 6 3 11 2 11 -4 0 -6 11 1
25 15 14 14 22 30 19 36 -5 7 -2 9 8 6 8 -4 21 -2 29 4 11 7 9 8 -6 4 -16 -5
-16 -3 5 14 14 11 31 20 39 20 17 0 81 69 81 87 0 7 5 13 11 13 6 0 8 7 5 16
-3 8 -2 12 3 9 16 -9 20 9 6 29 -8 10 -18 15 -23 12 -6 -3 -8 2 -5 14 4 16 8
18 19 9 8 -7 17 -9 21 -5 3 3 1 6 -5 6 -7 0 -12 9 -12 20 0 26 -29 15 -41 -16
-4 -13 -13 -24 -19 -24 -6 0 -9 3 -7 8 3 4 1 16 -4 27 -6 17 -8 17 -8 3 -1
-10 -6 -18 -12 -18 -7 0 -9 13 -5 38 5 37 5 37 -6 7 l-12 -30 -6 30 c-4 18 1
51 11 81 11 32 14 56 8 65 -7 12 -9 12 -10 -1 -1 -8 -1 -20 0 -27 1 -11 -37
-83 -45 -83 -2 0 2 17 10 38 28 73 26 99 -2 37 -17 -36 -31 -55 -36 -47 -4 6
0 24 8 40 12 23 12 32 3 42 -10 10 -8 12 6 7 9 -4 18 -2 18 3 1 6 3 15 4 20 1
6 3 13 4 17 0 3 11 -2 23 -13 12 -10 18 -13 14 -6 -4 6 -2 12 3 12 6 0 11 7
11 15 0 8 4 15 9 15 5 0 23 12 40 26 17 14 35 22 41 19 7 -5 5 -12 -7 -21 -16
-13 -15 -13 10 -4 16 6 26 6 22 1 -3 -5 -1 -12 5 -16 5 -3 10 -2 10 3 0 15 45
59 68 66 12 4 29 20 38 36 23 38 96 71 169 75 45 3 61 8 63 19 2 9 16 18 30
21 15 3 44 9 65 14 21 5 57 7 80 4 55 -5 88 -6 112 -2 12 3 19 -1 18 -8 -2 -7
2 -13 8 -13 6 0 29 -13 52 -28 90 -60 229 -105 305 -99 22 2 39 0 36 -4 -2 -4
3 -10 12 -13 11 -4 15 -2 11 8 -4 10 4 15 24 18 25 4 29 2 24 -16 -3 -12 -2
-15 1 -8 3 6 18 12 34 12 15 0 30 6 33 14 4 11 22 13 72 10 37 -2 76 -6 87
-10 20 -6 20 -6 -1 15 -12 12 -28 21 -36 21 -8 0 -12 6 -9 14 3 8 13 12 25 9
18 -5 23 5 22 45 -1 8 15 12 48 12 29 0 49 5 49 11 0 13 92 8 103 -6 4 -6 11
-4 18 5 8 12 9 11 4 -6 -5 -18 0 -23 29 -28 20 -4 41 -13 49 -20 7 -7 22 -16
32 -20 20 -6 59 -63 98 -138 10 -21 26 -38 34 -38 12 0 13 -3 4 -14 -13 -16 3
-61 24 -70 10 -3 10 2 2 25 -9 22 -8 32 1 41 10 10 15 10 22 -2 5 -8 10 -10
10 -5 0 6 -7 21 -16 33 -16 24 -11 27 42 23 12 -1 24 4 27 12 4 11 0 13 -15 9
-13 -3 -19 -1 -15 5 4 6 0 16 -8 23 -21 17 -19 33 4 25 14 -4 19 -1 17 12 0
10 5 17 12 16 6 -2 12 2 12 7 0 6 -5 10 -11 10 -7 0 -9 8 -4 23 3 12 8 30 9
39 1 10 6 21 10 25 5 5 6 -5 3 -22 l-5 -29 28 34 c33 40 33 73 1 78 -18 3 -21
9 -19 40 4 80 -2 163 -12 157 -7 -4 -9 2 -4 19 5 22 3 26 -14 26 -17 0 -20 5
-16 25 3 15 0 25 -7 25 -8 0 -7 6 2 18 7 9 9 14 4 9 -4 -4 -17 0 -27 10 -18
16 -25 39 -9 29 17 -11 -8 66 -29 89 -16 17 -18 24 -8 28 7 3 3 6 -9 6 -13 1
-23 5 -23 10 0 13 -95 61 -120 61 -12 0 -31 5 -42 11 -15 8 -18 8 -14 0 5 -7
1 -8 -11 -4 -32 11 -35 15 -22 24 10 6 8 9 -8 9 -13 0 -22 5 -20 13 1 7 -7 11
-21 10 -13 -2 -21 1 -17 7 3 6 1 10 -5 10 -6 0 -8 5 -4 11 4 8 1 8 -13 1 -12
-7 -25 -7 -38 -1 -19 10 -19 10 -2 -5 11 -8 26 -12 35 -9 11 5 14 2 9 -10 -3
-9 1 -21 11 -29 11 -9 14 -10 8 0 -4 6 -4 12 1 12 11 0 40 -20 29 -20 -5 0 -1
-9 9 -20 20 -22 7 -27 -26 -10 -17 9 -19 7 -19 -17 0 -21 -3 -24 -12 -15 -19
19 -29 14 -16 -7 7 -11 16 -17 20 -15 4 3 8 -1 8 -8 0 -9 3 -9 10 2 6 9 10 11
10 3 0 -7 12 -19 28 -27 l27 -14 -35 1 c-19 1 -38 7 -42 12 -4 6 -8 -2 -8 -17
0 -14 6 -29 13 -31 9 -4 9 -6 0 -6 -7 -1 -10 -7 -7 -15 3 -8 0 -17 -6 -21 -7
-4 -10 -1 -9 6 3 21 -13 79 -23 85 -16 10 -17 0 -3 -38 7 -21 9 -38 5 -38 -4
0 -11 11 -14 25 -8 30 -48 72 -70 72 -18 0 -21 -13 -6 -22 5 -3 15 -16 21 -28
6 -13 -1 -8 -18 11 -93 111 -97 117 -73 97 14 -11 31 -26 38 -34 14 -17 42
-24 42 -10 0 4 7 6 15 3 11 -5 13 -2 9 9 -5 13 -10 14 -24 5 -15 -9 -25 -6
-57 20 -43 33 -75 31 -48 -4 8 -10 15 -23 15 -28 0 -6 -11 4 -23 22 -13 17
-28 28 -32 24 -5 -4 -5 -1 -1 6 4 7 1 12 -9 12 -9 0 -14 4 -11 8 3 5 -11 16
-31 26 -19 9 -33 20 -29 23 3 3 14 0 23 -8 17 -13 17 -13 3 5 -8 11 -14 22
-13 25 1 3 -1 8 -4 11 -4 3 -3 -1 1 -7 11 -20 -8 -15 -38 8 -15 12 -43 22 -65
23 -22 0 -37 4 -35 7 6 10 -80 21 -101 13 -13 -5 -16 -4 -11 4 4 7 1 12 -9 12
-9 0 -13 -4 -10 -10 3 -5 1 -10 -4 -10 -6 0 -11 5 -11 10 0 6 -8 10 -17 9 -11
0 -13 -3 -5 -6 24 -10 11 -23 -22 -23 -19 0 -38 -5 -41 -10 -3 -6 -18 -7 -33
-4 -33 8 -53 24 -29 24 9 0 17 3 17 8 0 10 -82 2 -96 -9 -6 -5 -18 -3 -30 6
-18 13 -17 14 11 13 74 -2 222 20 232 35 4 6 -2 8 -15 5 -11 -3 -49 0 -84 6
-51 10 -80 9 -153 -3z m95 -71 c0 -5 -2 -10 -4 -10 -3 0 -8 5 -11 10 -3 6 -1
10 4 10 6 0 11 -4 11 -10z m-95 -11 c-4 -5 -19 -9 -35 -9 -16 0 -35 -6 -42
-13 -23 -24 -58 -39 -58 -26 0 6 9 13 19 16 11 3 22 12 25 20 5 11 1 13 -17 8
-12 -4 -17 -3 -10 2 16 12 125 14 118 2z m60 1 c3 -5 1 -10 -4 -10 -6 0 -11 5
-11 10 0 6 2 10 4 10 3 0 8 -4 11 -10z m400 -30 c-3 -5 -1 -10 5 -10 6 0 8 -4
5 -10 -3 -5 -1 -10 6 -10 7 0 9 -3 6 -7 -4 -3 -16 3 -27 14 -14 15 -16 23 -7
26 18 8 19 8 12 -3z m-391 -9 c3 -5 -8 -14 -26 -20 -43 -15 -45 -14 -18 9 25
22 36 25 44 11z m227 -17 c23 -10 26 -13 10 -10 -14 3 -20 1 -15 -4 5 -5 25
-11 44 -12 35 -3 60 -18 60 -36 0 -5 11 -13 25 -16 13 -3 30 -16 36 -29 9 -18
9 -20 -2 -9 -7 6 -24 12 -37 12 -13 0 -20 4 -17 10 4 6 -5 10 -19 10 -23 0
-31 9 -27 33 0 4 -10 7 -24 7 -14 0 -25 -6 -25 -12 0 -9 -3 -9 -8 -2 -4 6 -17
7 -32 3 -14 -4 -19 -7 -12 -8 30 -2 8 -16 -29 -18 -23 0 -44 -5 -48 -11 -3 -5
-17 -12 -31 -16 l-25 -7 24 14 24 15 -21 6 c-23 8 -57 -15 -44 -29 4 -5 2 -5
-4 -2 -7 4 -14 0 -18 -8 -7 -18 -37 -20 -54 -3 -7 7 -12 8 -12 4 0 -5 -10 -2
-22 6 -13 8 -44 16 -70 16 -27 1 -82 16 -123 32 -82 33 -100 36 -89 18 4 -7 3
-8 -5 -4 -6 4 -9 12 -6 17 9 14 46 10 91 -10 28 -13 46 -16 57 -9 11 6 27 3
49 -8 33 -18 190 -36 182 -22 -3 5 4 8 15 8 11 0 23 5 26 10 4 7 12 7 25 0 22
-12 33 -13 26 -2 -2 4 7 9 22 10 15 1 28 6 30 11 2 5 13 7 25 4 21 -4 21 -4 4
11 -20 16 -47 11 -47 -8 0 -6 -5 -4 -11 4 -8 11 -12 12 -16 3 -3 -8 -14 -11
-29 -7 -15 4 -24 2 -24 -6 0 -6 -4 -9 -9 -6 -5 4 -12 1 -14 -4 -3 -6 -4 -5 -3
2 3 15 47 38 79 42 13 1 27 5 32 8 6 3 20 4 32 3 12 -1 20 2 17 7 -7 11 -1 10
37 -8z m-474 -20 c-3 -3 -12 -4 -19 -1 -8 3 -5 6 6 6 11 1 17 -2 13 -5z m40
-10 c-3 -3 -12 -4 -19 -1 -8 3 -5 6 6 6 11 1 17 -2 13 -5z m463 -67 c8 -3 -3
-5 -25 -4 -22 0 -34 2 -27 5 7 2 9 8 6 14 -4 7 0 7 12 0 11 -5 26 -12 34 -15z
m-522 -4 c-10 -2 -26 -2 -35 0 -10 3 -2 5 17 5 19 0 27 -2 18 -5z m822 -3 c0
-5 -5 -10 -11 -10 -5 0 -7 5 -4 10 3 6 8 10 11 10 2 0 4 -4 4 -10z m-972 -47
c-10 -2 -26 -2 -35 0 -10 3 -2 5 17 5 19 0 27 -2 18 -5z m149 1 c-3 -3 -12 -4
-19 -1 -8 3 -5 6 6 6 11 1 17 -2 13 -5z m46 -11 c-7 -2 -19 -2 -25 0 -7 3 -2
5 12 5 14 0 19 -2 13 -5z m-358 -83 c3 -5 1 -10 -4 -10 -6 0 -11 5 -11 10 0 6
2 10 4 10 3 0 8 -4 11 -10z m1715 -25 c11 -13 10 -14 -4 -9 -9 3 -16 10 -16
15 0 13 6 11 20 -6z m-1645 -15 c-28 -12 -37 -12 -30 0 3 6 16 10 28 9 21 0
21 -1 2 -9z m-145 -50 c12 -8 12 -10 -5 -9 -11 0 -29 4 -40 9 -18 8 -18 9 5 9
14 0 32 -4 40 -9z m-110 -10 c13 -8 13 -10 -2 -10 -9 0 -20 5 -23 10 -8 13 5
13 25 0z m527 -31 c-9 -6 -15 -14 -12 -20 4 -5 2 -9 -4 -9 -5 0 -16 -3 -25 -6
-27 -10 -18 15 12 30 30 17 57 21 29 5z m-360 -5 c-3 -3 -12 -4 -19 -1 -8 3
-5 6 6 6 11 1 17 -2 13 -5z m50 0 c-3 -3 -12 -4 -19 -1 -8 3 -5 6 6 6 11 1 17
-2 13 -5z m-120 -10 c-3 -3 -12 -4 -19 -1 -8 3 -5 6 6 6 11 1 17 -2 13 -5z
m658 -24 c-3 -5 -12 -10 -18 -10 -7 0 -6 4 3 10 19 12 23 12 15 0z m-285 -11
c0 -6 6 -6 18 0 12 6 34 6 63 -1 24 -6 55 -11 68 -12 13 0 25 -7 27 -14 1 -7
0 -8 -2 -3 -3 5 -14 7 -24 4 -11 -3 -17 -9 -14 -14 3 -5 -10 -8 -28 -8 -24 1
-27 3 -10 6 19 4 21 7 11 19 -7 8 -20 12 -35 8 -15 -4 -24 -2 -24 6 0 8 -6 9
-17 5 -10 -4 -26 -7 -36 -7 -9 0 -15 -2 -13 -6 5 -9 -16 -38 -29 -41 -5 0 -10
-8 -10 -16 0 -8 -8 -24 -18 -35 -9 -11 -17 -25 -17 -30 0 -6 -4 -10 -10 -10
-5 0 -10 9 -10 20 0 12 7 20 16 20 14 0 14 3 4 15 -9 10 -9 15 -1 15 6 0 11
-5 11 -11 0 -5 4 -8 9 -5 15 9 1 45 -15 39 -8 -3 -14 -1 -14 5 0 13 29 24 42
15 6 -3 8 -1 4 5 -3 5 0 13 6 15 10 4 10 7 0 15 -9 6 -4 9 17 10 17 0 31 -4
31 -9z m-75 -19 c-3 -5 -12 -10 -18 -10 -7 0 -6 4 3 10 19 12 23 12 15 0z
m272 -12 c-3 -8 -6 -5 -6 6 -1 11 2 17 5 13 3 -3 4 -12 1 -19z m-167 9 c0 -2
-12 -14 -27 -28 -20 -18 -24 -19 -13 -4 18 24 40 42 40 32z m-421 -58 c-81
-76 -102 -94 -94 -80 4 7 30 34 57 60 28 25 56 51 62 57 6 7 13 10 15 8 2 -2
-16 -23 -40 -45z m456 41 c-3 -5 -10 -10 -16 -10 -5 0 -9 5 -9 10 0 6 7 10 16
10 8 0 12 -4 9 -10z m-177 -12 c-3 -7 -24 -14 -49 -16 -48 -4 -51 4 -5 12 16
3 31 8 34 11 10 10 24 5 20 -7z m-199 -15 c-3 -20 2 -23 15 -10 9 9 25 12 43
9 l28 -6 -25 -7 c-14 -4 -18 -7 -10 -8 9 -1 2 -9 -16 -20 -18 -11 -35 -24 -39
-30 -9 -16 18 -9 31 8 9 11 11 10 11 -5 0 -20 -21 -47 -30 -38 -2 3 -7 -2 -10
-10 -4 -9 -2 -18 3 -21 13 -8 41 6 34 17 -4 6 2 5 14 -1 12 -6 24 -16 28 -23
4 -7 3 -8 -4 -4 -7 4 -20 2 -29 -3 -10 -6 -13 -11 -7 -11 7 0 14 -6 17 -13 4
-10 -4 -14 -24 -14 -19 0 -25 3 -17 8 7 5 0 7 -17 5 -17 -2 -29 -9 -27 -15 1
-6 -3 -11 -10 -11 -9 0 -9 -3 0 -12 10 -10 15 -10 22 2 5 8 10 11 10 5 0 -20
-17 -38 -24 -26 -10 16 -33 14 -39 -3 -4 -11 -1 -13 11 -9 23 8 14 1 -33 -27
-31 -19 -37 -20 -26 -6 13 15 13 19 0 28 -11 8 -11 9 3 4 10 -3 20 -1 23 4 4
6 0 10 -7 10 -7 0 -1 8 12 17 32 21 41 35 35 51 -2 6 -1 12 3 12 4 0 13 10 21
23 14 22 13 22 -12 -2 -14 -13 -23 -29 -21 -36 7 -16 -32 -39 -52 -31 -8 3
-14 12 -14 21 0 18 -7 19 -48 4 -18 -6 -29 -15 -26 -20 7 -13 -49 -7 -58 6 -5
6 -8 6 -8 -2 0 -7 -5 -13 -10 -13 -7 0 -7 7 1 21 7 14 17 19 31 16 16 -5 19
-2 15 13 -3 13 0 17 9 13 8 -3 11 -9 8 -14 -3 -5 4 -9 16 -9 14 0 19 4 14 12
-5 7 -2 9 9 5 16 -6 64 29 60 44 -2 5 1 9 6 9 11 0 86 60 86 68 0 9 15 32 21
32 2 0 3 -3 3 -7z m128 -19 c-3 -3 -12 -4 -19 -1 -8 3 -5 6 6 6 11 1 17 -2 13
-5z m804 -28 c-7 -9 0 -11 26 -8 20 3 33 1 30 -5 -3 -5 -22 -10 -43 -11 -43
-3 -89 -25 -126 -60 -27 -25 -41 -19 -16 6 7 7 9 12 5 12 -4 0 -16 -9 -27 -20
-24 -24 -60 -29 -40 -5 6 8 9 19 6 24 -4 5 -2 12 4 16 6 4 7 11 4 17 -5 7 -1
9 9 5 10 -3 24 -4 33 0 13 5 13 7 2 14 -8 6 -1 7 18 3 19 -4 34 -1 38 5 4 6
12 9 17 6 5 -4 9 -3 9 2 0 4 14 8 30 9 22 1 27 -2 21 -10z m67 7 c-10 -2 -26
-2 -35 0 -10 3 -2 5 17 5 19 0 27 -2 18 -5z m47 -21 c-3 -3 -11 0 -18 7 -9 10
-8 11 6 5 10 -3 15 -9 12 -12z m-710 -12 c-11 -11 -36 -22 -55 -25 l-35 -6 39
15 c21 8 43 19 49 25 6 6 13 11 16 11 3 0 -3 -9 -14 -20z m-601 -11 c-12 -11
-39 -23 -61 -26 -21 -3 -50 -14 -64 -25 -13 -11 -19 -17 -12 -14 6 4 -3 -16
-20 -44 -18 -27 -35 -50 -40 -50 -4 0 5 18 19 40 15 22 25 42 23 44 -7 7 -34
-18 -46 -44 -12 -25 -12 -25 -6 5 7 35 30 65 50 65 8 0 19 14 24 30 12 34 24
37 51 13 17 -16 21 -15 56 5 47 27 52 27 26 1z m456 14 c0 -10 -49 -33 -69
-33 -13 0 -14 -2 -2 -9 11 -7 9 -10 -9 -16 -25 -8 -56 14 -31 22 10 4 10 7 1
13 -8 5 -7 9 5 13 9 4 13 3 10 -2 -3 -5 -1 -12 4 -15 5 -3 12 1 15 10 3 8 10
12 16 9 5 -3 18 -1 27 4 22 12 33 14 33 4z m-605 -33 c3 -6 -1 -7 -9 -4 -18 7
-21 14 -7 14 6 0 13 -4 16 -10z m965 -1 c0 -7 12 -10 28 -7 22 3 31 -1 40 -20
14 -31 -4 -38 -44 -17 -16 8 -36 15 -45 15 -17 0 -32 24 -22 34 11 10 43 6 43
-5z m-895 -28 c3 -6 -3 -15 -14 -20 -18 -10 -21 -3 -12 27 2 6 20 1 26 -7z
m830 0 c3 -5 0 -13 -5 -16 -16 -10 -62 4 -55 15 8 13 52 13 60 1z m-280 -21
c3 -5 1 -10 -4 -10 -6 0 -11 5 -11 10 0 6 2 10 4 10 3 0 8 -4 11 -10z m1673 3
c-10 -2 -26 -2 -35 0 -10 3 -2 5 17 5 19 0 27 -2 18 -5z m-1708 -13 c0 -5 -8
-10 -17 -10 -15 0 -16 2 -3 10 19 12 20 12 20 0z m1710 -10 c0 -5 -4 -10 -10
-10 -5 0 -10 5 -10 10 0 6 5 10 10 10 6 0 10 -4 10 -10z m-690 -70 c0 -16 -4
-30 -8 -30 -5 0 -7 14 -4 30 2 17 6 30 8 30 2 0 4 -13 4 -30z m-1864 -2 c4 -6
3 -8 -2 -5 -6 3 -22 -14 -38 -39 -15 -24 -32 -42 -36 -39 -4 3 -6 -4 -3 -14 3
-10 -3 -31 -13 -45 -13 -20 -14 -30 -5 -39 6 -6 11 -15 11 -19 0 -4 -9 1 -20
12 -12 12 -17 26 -13 37 3 10 -6 2 -21 -17 -15 -19 -32 -34 -37 -32 -12 3 -12
-25 0 -33 5 -3 12 4 16 15 3 11 11 20 16 20 6 0 7 5 4 10 -3 6 -1 10 4 10 6 0
11 -7 11 -15 0 -8 -4 -15 -10 -15 -5 0 -12 -11 -16 -25 -3 -14 -10 -25 -16
-25 -5 0 -6 -10 -3 -22 6 -16 4 -20 -8 -15 -11 4 -14 2 -11 -8 6 -14 -20 -70
-41 -92 -11 -10 -14 -10 -18 0 -2 6 4 19 14 28 13 11 17 26 14 49 -2 18 0 42
6 52 7 12 6 18 -1 18 -6 0 -13 -7 -16 -15 -4 -8 -10 -12 -15 -9 -7 4 -14 -42
-10 -69 0 -4 -5 -6 -11 -5 -8 2 -21 -23 -32 -59 -11 -35 -23 -63 -28 -63 -5 0
-7 4 -3 9 3 6 8 29 11 53 6 49 33 118 46 118 5 0 6 5 3 11 -4 6 2 13 14 16 12
3 21 12 21 20 0 8 5 11 12 7 7 -5 9 -2 5 9 -3 9 0 18 9 21 8 3 14 12 14 20 0
8 12 24 26 35 15 12 23 21 18 21 -4 0 4 13 19 28 15 16 24 31 20 35 -3 4 -1 7
6 7 6 0 16 11 21 25 5 14 14 25 19 25 13 0 8 -25 -9 -46 -14 -16 -13 -16 8 -3
12 8 22 18 22 23 0 9 29 46 36 46 2 0 6 -5 10 -12z m125 -41 c-14 -14 -15 -30
-1 -22 6 3 10 1 10 -4 0 -6 -7 -11 -15 -11 -18 0 -19 8 -2 43 6 14 14 22 16
16 2 -6 -2 -16 -8 -22z m139 29 c0 -11 -19 -15 -25 -6 -3 5 1 10 9 10 9 0 16
-2 16 -4z m60 -4 c0 -15 -11 -21 -27 -15 -12 5 -12 7 -1 14 17 11 28 11 28 1z
m154 -1 c3 -5 -6 -12 -20 -15 -22 -6 -25 -11 -20 -32 5 -17 3 -23 -4 -19 -5 3
-10 4 -10 1 0 -2 -3 -13 -7 -23 -5 -14 -1 -13 20 6 15 14 30 21 34 17 4 -4 0
-12 -9 -17 -21 -12 -38 -29 -58 -59 -27 -42 -61 -77 -54 -57 6 17 5 18 -14 6
-11 -7 -20 -17 -19 -22 1 -5 -4 -12 -10 -14 -19 -7 -16 14 5 35 9 9 17 23 17
30 0 14 -1 14 -33 5 -18 -4 -20 -8 -10 -14 9 -6 5 -8 -12 -5 -17 2 -29 -3 -38
-18 -13 -21 -13 -20 -6 3 3 13 7 29 8 35 3 18 32 56 39 50 3 -4 18 7 32 24 16
20 32 29 41 25 9 -3 19 -1 23 6 4 7 18 13 29 14 20 1 27 9 23 30 -1 5 3 6 8 3
5 -4 12 -2 16 4 8 12 22 13 29 1z m-250 -52 c-20 -19 -21 -19 -35 -2 -13 16
-12 17 4 4 15 -12 17 -11 17 6 0 26 11 36 24 23 7 -7 4 -17 -10 -31z m301 31
c-3 -5 -13 -10 -21 -10 -8 0 -14 -4 -14 -10 0 -5 -10 -10 -22 -9 -13 0 -17 3
-10 6 6 2 9 10 6 15 -4 6 -2 8 4 5 5 -4 21 -3 34 2 30 13 30 13 23 1z m-259
-28 c-17 -16 -18 -16 -5 5 7 12 15 20 18 17 3 -2 -3 -12 -13 -22z m389 18 c-3
-5 -12 -10 -18 -10 -7 0 -6 4 3 10 19 12 23 12 15 0z m-117 -24 c-7 -8 -16
-12 -20 -10 -3 2 -8 -1 -10 -8 -3 -9 -6 -9 -12 0 -4 8 1 16 16 21 33 14 41 13
26 -3z m41 -13 c-11 -3 -15 -11 -12 -24 5 -19 -11 -27 -22 -10 -9 15 -55 6
-73 -15 -17 -18 -16 -18 6 0 12 11 22 14 22 8 0 -7 -4 -12 -9 -12 -5 0 -23
-14 -40 -30 -16 -17 -32 -26 -36 -21 -8 13 65 93 79 88 7 -3 25 1 41 8 17 7
37 13 45 13 11 0 11 -1 -1 -5z m-479 -28 c-7 -9 -15 -13 -18 -10 -3 2 1 11 8
20 7 9 15 13 18 10 3 -2 -1 -11 -8 -20z m90 21 c0 -2 -8 -10 -17 -17 -16 -13
-17 -12 -4 4 13 16 21 21 21 13z m47 -21 c-4 -8 -12 -15 -19 -14 -10 0 -10 2
0 6 6 2 12 12 12 21 0 8 3 13 6 9 4 -3 4 -13 1 -22z m-343 -131 c3 -8 2 -12
-4 -9 -6 3 -10 10 -10 16 0 14 7 11 14 -7z m448 -115 c0 -24 5 -47 11 -50 6
-4 6 -13 -1 -24 -8 -15 -11 -13 -22 19 -7 21 -9 53 -5 73 8 45 15 38 17 -18z
m35 -51 c-2 -13 -4 -5 -4 17 -1 22 1 32 4 23 2 -10 2 -28 0 -40z m30 0 c-3 -8
-6 -5 -6 6 -1 11 2 17 5 13 3 -3 4 -12 1 -19z m-160 -30 c-3 -7 -5 -2 -5 12 0
14 2 19 5 13 2 -7 2 -19 0 -25z m198 -6 c-3 -3 -11 0 -18 7 -9 10 -8 11 6 5
10 -3 15 -9 12 -12z m-124 -23 c-5 -13 -10 -19 -10 -12 -1 15 10 45 15 40 3
-2 0 -15 -5 -28z m39 2 c0 -5 3 -17 6 -25 5 -12 2 -15 -10 -10 -11 4 -15 2
-13 -7 2 -8 2 -11 0 -6 -3 4 -8 5 -13 2 -4 -3 -6 4 -3 15 3 11 9 17 14 14 5
-3 6 2 3 10 -3 9 -1 16 5 16 6 0 11 -4 11 -9z m-750 -31 c0 -16 -4 -30 -9 -30
-8 0 -9 43 -2 58 5 11 11 -3 11 -28z m617 -2 c-3 -8 -6 -5 -6 6 -1 11 2 17 5
13 3 -3 4 -12 1 -19z m183 3 c0 -6 -4 -13 -10 -16 -5 -3 -10 1 -10 9 0 9 5 16
10 16 6 0 10 -4 10 -9z m-723 -48 c-3 -10 -5 -2 -5 17 0 19 2 27 5 18 2 -10 2
-26 0 -35z m-87 -8 c0 -8 -2 -15 -4 -15 -2 0 -6 7 -10 15 -3 8 -1 15 4 15 6 0
10 -7 10 -15z m-10 -45 c0 -11 -4 -20 -10 -20 -5 0 -10 9 -10 20 0 11 5 20 10
20 6 0 10 -9 10 -20z m-21 -45 c0 -5 -4 -3 -9 5 -5 8 -9 22 -9 30 0 16 17 -16
18 -35z m49 -30 c0 -11 -2 -14 -5 -7 -2 6 -10 9 -15 5 -8 -4 -9 2 -5 18 4 13
7 31 8 39 1 20 17 -29 17 -55z m69 43 c-3 -8 -6 -5 -6 6 -1 11 2 17 5 13 3 -3
4 -12 1 -19z m658 -40 c-5 -25 -25 -49 -25 -30 0 6 -7 9 -15 6 -8 -4 -15 -14
-15 -24 0 -9 -9 -25 -20 -35 -19 -17 -20 -17 -20 0 0 15 83 105 96 105 1 0 1
-10 -1 -22z m-352 -113 c-3 -9 -8 -14 -10 -11 -3 3 -2 9 2 15 9 16 15 13 8 -4z
m-340 -50 c-3 -9 -8 -14 -10 -11 -3 3 -2 9 2 15 9 16 15 13 8 -4z m400 -20
c-3 -9 -8 -14 -10 -11 -3 3 -2 9 2 15 9 16 15 13 8 -4z m181 -11 c3 -8 2 -12
-4 -9 -6 3 -10 10 -10 16 0 14 7 11 14 -7z m-39 -50 c-8 -16 -15 -23 -15 -16
0 13 22 53 27 48 2 -2 -3 -16 -12 -32z m-518 -26 c-3 -7 -5 -2 -5 12 0 14 2
19 5 13 2 -7 2 -19 0 -25z m540 0 c-3 -8 -6 -5 -6 6 -1 11 2 17 5 13 3 -3 4
-12 1 -19z m-600 -20 c-3 -8 -6 -5 -6 6 -1 11 2 17 5 13 3 -3 4 -12 1 -19z
m532 -48 c0 -10 -3 -8 -9 5 -12 27 -12 43 0 25 5 -8 9 -22 9 -30z m74 15 c-3
-9 -8 -14 -10 -11 -3 3 -2 9 2 15 9 16 15 13 8 -4z m-79 -84 c-7 -9 -24 13
-24 32 0 21 1 21 13 -3 8 -14 12 -27 11 -29z m43 -23 c-3 -7 -5 -2 -5 12 0 14
2 19 5 13 2 -7 2 -19 0 -25z"/>
<path d="M4798 7973 c7 -3 16 -2 19 1 4 3 -2 6 -13 5 -11 0 -14 -3 -6 -6z"/>
<path d="M5005 7930 c3 -5 8 -10 11 -10 2 0 4 5 4 10 0 6 -5 10 -11 10 -5 0
-7 -4 -4 -10z"/>
<path d="M4435 7539 c-4 -6 -5 -12 -2 -15 2 -3 7 2 10 11 7 17 1 20 -8 4z"/>
<path d="M5225 7465 c-16 -8 -23 -14 -14 -15 8 0 24 7 35 15 23 18 18 18 -21
0z"/>
<path d="M4500 7440 c0 -5 5 -10 11 -10 5 0 7 5 4 10 -3 6 -8 10 -11 10 -2 0
-4 -4 -4 -10z"/>
<path d="M3536 7067 c3 -10 9 -15 12 -12 3 3 0 11 -7 18 -10 9 -11 8 -5 -6z"/>
<path d="M4052 7200 c-13 -16 -29 -30 -36 -30 -20 0 -36 -24 -27 -38 6 -9 20
-1 49 30 23 24 42 48 42 55 0 19 -4 16 -28 -17z m-32 -44 c0 -2 -7 -7 -16 -10
-8 -3 -12 -2 -9 4 6 10 25 14 25 6z"/>
<path d="M4115 7183 c-19 -15 -19 -15 4 -8 l24 7 -19 -26 c-21 -28 -40 -35
-31 -11 4 8 2 17 -3 20 -4 3 -7 -6 -5 -20 2 -24 12 -43 18 -34 1 2 13 19 26
37 26 38 17 59 -14 35z"/>
<path d="M4590 8120 c-9 -6 -10 -10 -3 -10 6 0 15 5 18 10 8 12 4 12 -15 0z"/>
<path d="M5720 8061 c0 -5 7 -12 16 -15 14 -5 15 -4 4 9 -14 17 -20 19 -20 6z"/>
<path d="M5521 8057 c2 -1 14 -11 27 -22 17 -14 23 -16 20 -5 -4 18 -18 30
-37 30 -8 0 -12 -1 -10 -3z"/>
<path d="M4588 7983 c7 -3 16 -2 19 1 4 3 -2 6 -13 5 -11 0 -14 -3 -6 -6z"/>
<path d="M5750 7910 c-13 -8 -12 -10 3 -10 9 0 17 5 17 10 0 12 -1 12 -20 0z"/>
<path d="M4238 7843 c7 -3 16 -2 19 1 4 3 -2 6 -13 5 -11 0 -14 -3 -6 -6z"/>
<path d="M3966 7811 c-4 -7 -5 -15 -2 -18 9 -9 19 4 14 18 -4 11 -6 11 -12 0z"/>
<path d="M3872 7748 c-15 -15 -16 -38 -2 -38 6 0 10 4 10 9 0 5 7 17 16 25 12
13 12 16 2 16 -8 0 -19 -5 -26 -12z"/>
<path d="M3923 7728 c-2 -16 1 -18 10 -9 7 7 8 14 1 21 -6 6 -10 2 -11 -12z"/>
<path d="M4111 7736 c-7 -8 -8 -17 -3 -19 4 -3 13 3 20 14 14 22 0 26 -17 5z"/>
<path d="M3835 7690 c-3 -5 -1 -10 4 -10 6 0 11 5 11 10 0 6 -2 10 -4 10 -3 0
-8 -4 -11 -10z"/>
<path d="M3805 7671 c-3 -5 -2 -12 3 -15 5 -3 9 1 9 9 0 17 -3 19 -12 6z"/>
<path d="M3805 7610 c-8 -13 5 -13 25 0 13 8 13 10 -2 10 -9 0 -20 -4 -23 -10z"/>
<path d="M4096 7605 c-8 -8 -21 -15 -30 -15 -8 0 -18 -5 -22 -11 -4 -8 0 -9
15 -4 13 4 21 2 21 -5 0 -12 35 4 57 26 10 10 9 13 -3 18 -21 8 -20 8 -38 -9z"/>
<path d="M3884 7579 c-21 -17 -42 -36 -46 -42 -4 -7 -8 -7 -8 -2 0 13 -60 -55
-60 -69 0 -6 -5 -4 -11 4 -9 12 -10 12 -7 1 7 -25 27 -23 52 4 15 16 30 24 37
19 8 -5 9 -3 4 5 -5 8 11 30 45 62 58 54 54 66 -6 18z"/>
<path d="M3630 7400 c0 -5 5 -10 10 -10 6 0 10 5 10 10 0 6 -4 10 -10 10 -5 0
-10 -4 -10 -10z"/>
<path d="M3669 7393 c-13 -16 -12 -17 4 -4 9 7 17 15 17 17 0 8 -8 3 -21 -13z"/>
<path d="M3630 7355 c-7 -8 -21 -15 -31 -15 -11 0 -19 -4 -19 -10 0 -5 5 -10
10 -10 6 0 10 -5 10 -11 0 -6 -6 -9 -14 -6 -9 4 -21 -5 -31 -19 -9 -14 -19
-22 -24 -20 -4 3 -8 -2 -8 -10 0 -10 10 -6 30 13 24 23 28 25 25 9 -1 -10 3
-21 11 -24 8 -2 11 0 8 5 -3 5 8 28 24 52 26 40 35 61 25 61 -2 0 -9 -7 -16
-15z"/>
<path d="M3760 7174 c0 -8 5 -12 10 -9 6 4 8 11 5 16 -9 14 -15 11 -15 -7z"/>
<path d="M4365 7170 c-10 -11 -15 -20 -12 -20 4 0 16 9 27 20 11 11 16 20 12
20 -5 0 -17 -9 -27 -20z"/>
<path d="M4283 7135 c0 -8 4 -12 9 -9 4 3 8 9 8 15 0 5 -4 9 -8 9 -5 0 -9 -7
-9 -15z"/>
<path d="M6205 7120 c3 -5 8 -10 11 -10 2 0 4 5 4 10 0 6 -5 10 -11 10 -5 0
-7 -4 -4 -10z"/>
<path d="M3301 6984 c0 -11 3 -14 6 -6 3 7 2 16 -1 19 -3 4 -6 -2 -5 -13z"/>
<path d="M3377 6960 c-6 -27 -10 -32 -17 -20 -5 8 -10 13 -11 10 0 -3 -2 -14
-4 -24 -2 -11 -1 -24 2 -29 7 -12 45 62 41 81 -2 10 -7 1 -11 -18z"/>
<path d="M6180 6956 c0 -9 5 -16 10 -16 6 0 10 4 10 9 0 6 -4 13 -10 16 -5 3
-10 -1 -10 -9z"/>
<path d="M4231 6923 c-1 -6 -4 -20 -7 -30 -5 -17 -5 -17 6 0 6 10 9 23 6 30
-3 9 -5 9 -5 0z"/>
<path d="M3315 6911 c-3 -5 -2 -12 3 -15 5 -3 9 1 9 9 0 17 -3 19 -12 6z"/>
<path d="M6170 6910 c0 -5 5 -10 10 -10 6 0 10 5 10 10 0 6 -4 10 -10 10 -5 0
-10 -4 -10 -10z"/>
<path d="M6196 6885 c-3 -8 -1 -15 4 -15 6 0 10 7 10 15 0 8 -2 15 -4 15 -2 0
-6 -7 -10 -15z"/>
<path d="M5017 6884 c-2 -2 -34 -5 -70 -6 -41 -1 -62 -5 -55 -10 8 -5 -1 -6
-22 -3 -19 4 -46 2 -60 -4 -22 -9 -20 -10 15 -6 38 5 38 4 10 -5 -16 -6 -38
-8 -48 -6 -9 2 -15 0 -11 -5 3 -5 -8 -9 -25 -9 -16 0 -32 -4 -36 -9 -3 -6 9
-8 27 -7 18 2 23 1 10 -1 -12 -2 -20 -9 -16 -14 3 -6 0 -10 -7 -8 -29 3 -47
-2 -69 -21 -13 -11 -27 -20 -32 -20 -4 0 -8 -4 -8 -10 0 -5 15 -10 34 -10 19
0 38 5 41 10 3 6 11 10 16 10 6 0 8 -4 5 -8 -3 -5 1 -9 9 -9 8 0 15 4 15 9 0
4 7 8 16 8 10 0 14 -6 10 -15 -3 -9 0 -15 10 -15 8 0 12 5 9 10 -4 6 5 10 19
10 14 0 46 5 71 12 51 14 63 8 43 -21 -10 -14 -18 -17 -28 -10 -12 7 -11 9 4
9 11 0 17 3 13 6 -3 3 -15 3 -27 -1 l-22 -7 21 -15 c23 -15 20 -36 -4 -27 -19
8 -181 -154 -167 -168 6 -6 20 -4 42 7 18 9 29 12 25 5 -4 -6 -31 -22 -61 -35
-60 -27 -68 -40 -27 -48 28 -5 103 18 114 36 4 5 11 7 17 3 5 -3 13 1 16 10 4
11 13 14 27 11 11 -3 36 1 55 9 25 11 40 12 54 4 14 -7 20 -7 20 0 0 5 9 10
20 10 11 0 19 -3 19 -7 -4 -23 4 -31 32 -35 22 -4 34 1 45 16 8 11 14 15 14 8
0 -7 5 -10 10 -7 6 3 10 1 10 -5 0 -7 -7 -9 -16 -6 -12 4 -15 2 -10 -9 3 -9 0
-15 -9 -15 -8 0 -20 -9 -27 -20 -14 -23 -34 -26 -41 -7 -4 7 -6 6 -6 -4 -1
-12 -13 -19 -38 -22 -69 -10 -103 -19 -103 -27 0 -4 15 -11 33 -14 17 -3 45
-13 61 -21 49 -26 233 -22 307 6 29 11 73 64 64 78 -8 14 5 41 20 41 7 0 16
-7 19 -16 8 -20 26 -8 26 18 0 11 9 32 20 48 11 15 24 39 30 54 5 15 17 26 28
26 20 0 52 29 52 47 0 6 7 16 15 23 20 16 19 40 -1 40 -11 0 -13 6 -9 19 4 14
0 21 -15 26 -11 3 -20 13 -20 22 0 11 -6 14 -25 9 -22 -6 -25 -3 -25 19 0 18
-5 25 -19 25 -11 0 -23 9 -26 20 -9 27 -24 25 -18 -2 4 -22 3 -22 -11 2 -10
16 -15 19 -16 10 0 -13 -1 -13 -10 0 -8 12 -10 12 -16 -3 -6 -15 -14 -17 -52
-12 -26 3 -53 11 -60 18 -13 10 -215 20 -225 11z m-310 -120 c-3 -3 -12 -4
-19 -1 -8 3 -5 6 6 6 11 1 17 -2 13 -5z m-34 -21 c-7 -2 -19 -2 -25 0 -7 3 -2
5 12 5 14 0 19 -2 13 -5z m331 -158 c-4 -8 1 -17 10 -21 33 -13 14 -24 -40
-24 -59 0 -60 5 -4 43 30 21 41 22 34 2z m91 -65 c3 -5 1 -10 -4 -10 -6 0 -11
5 -11 10 0 6 2 10 4 10 3 0 8 -4 11 -10z m-25 -10 c0 -5 -2 -10 -4 -10 -3 0
-8 5 -11 10 -3 6 -1 10 4 10 6 0 11 -4 11 -10z m100 -10 c0 -5 -5 -10 -11 -10
-5 0 -7 5 -4 10 3 6 8 10 11 10 2 0 4 -4 4 -10z"/>
<path d="M6212 6840 c0 -14 2 -19 5 -12 2 6 2 18 0 25 -3 6 -5 1 -5 -13z"/>
<path d="M4360 6766 c0 -9 0 -19 -1 -23 0 -4 4 -9 10 -11 14 -5 14 35 1 43 -5
3 -10 -1 -10 -9z"/>
<path d="M5856 6755 c-3 -8 -17 -15 -31 -15 -14 0 -28 -7 -32 -16 -4 -12 -14
-14 -44 -9 -43 7 -51 -6 -26 -45 10 -17 9 -22 -3 -30 -10 -6 -11 -10 -2 -10 7
0 12 -14 12 -35 0 -19 4 -35 10 -35 5 0 7 -7 4 -15 -3 -8 24 -75 61 -149 48
-97 80 -149 114 -183 26 -27 55 -60 65 -74 21 -33 55 -44 64 -21 5 14 7 12 13
-8 l7 -25 1 28 c1 15 4 27 9 27 12 0 7 77 -7 93 -9 12 -9 16 1 19 20 7 35 -14
43 -60 5 -33 11 -42 27 -42 16 0 18 3 9 14 -13 16 -5 67 13 78 6 4 9 21 8 38
-2 16 0 30 5 30 5 0 8 20 8 45 -1 26 2 42 8 38 8 -5 4 31 -10 80 -4 16 -1 18
19 13 12 -3 17 -3 11 0 -18 8 -16 24 2 24 10 0 15 10 14 33 -1 47 -13 82 -27
82 -7 0 -16 5 -20 11 -14 20 -79 64 -85 57 -4 -3 -7 -2 -7 4 0 5 -14 8 -30 5
-21 -3 -36 1 -48 14 -9 11 -31 20 -49 20 -17 1 -46 9 -64 18 -39 19 -36 19
-43 1z m334 -245 c0 -5 -4 -10 -10 -10 -5 0 -10 5 -10 10 0 6 5 10 10 10 6 0
10 -4 10 -10z m-299 -121 c11 -5 17 -14 14 -19 -8 -13 -45 0 -45 16 0 17 5 17
31 3z"/>
<path d="M5760 6736 c0 -9 5 -16 10 -16 6 0 10 4 10 9 0 6 -4 13 -10 16 -5 3
-10 -1 -10 -9z"/>
<path d="M4076 6573 c-6 -14 -5 -15 5 -6 7 7 10 15 7 18 -3 3 -9 -2 -12 -12z"/>
<path d="M4046 6465 c-11 -8 -15 -15 -9 -15 6 0 16 7 23 15 16 19 11 19 -14 0z"/>
<path d="M4031 6374 c0 -11 3 -14 6 -6 3 7 2 16 -1 19 -3 4 -6 -2 -5 -13z"/>
<path d="M4011 6094 c0 -11 3 -14 6 -6 3 7 2 16 -1 19 -3 4 -6 -2 -5 -13z"/>
<path d="M5860 6102 c-69 -2 -113 -18 -103 -36 4 -6 0 -5 -9 2 -16 13 -74 7
-84 -9 -3 -5 -14 -9 -25 -9 -11 0 -30 -6 -42 -14 -12 -8 -50 -19 -85 -25 -44
-7 -69 -17 -81 -32 -15 -19 -20 -20 -40 -10 -28 15 -51 8 -51 -17 0 -41 139
-110 186 -91 35 13 47 11 41 -5 -3 -8 -1 -17 6 -20 11 -4 -47 -10 -66 -7 -5 1
-7 -4 -5 -11 3 -7 17 -14 32 -16 23 -3 27 -7 24 -27 -4 -17 1 -26 19 -34 16
-7 23 -7 23 0 0 6 7 17 15 25 13 14 15 14 15 1 0 -9 -6 -18 -12 -21 -16 -6 27
-46 48 -46 8 0 25 -7 38 -15 18 -12 29 -13 57 -4 66 21 99 43 99 65 0 24 35
74 52 74 6 0 22 12 35 26 13 14 27 23 31 19 4 -4 1 -10 -5 -12 -16 -6 -17 -49
-2 -58 6 -4 8 -13 5 -21 -3 -8 -1 -14 4 -14 5 0 12 -9 15 -20 8 -27 23 -25 27
3 3 19 -18 83 -32 97 -8 8 -9 53 -3 70 7 17 7 23 -2 103 -4 37 -11 57 -19 57
-8 0 -20 8 -27 18 -11 14 -27 16 -79 14z"/>
<path d="M4310 5785 c0 -14 5 -25 10 -25 6 0 10 11 10 25 0 14 -4 25 -10 25
-5 0 -10 -11 -10 -25z"/>
<path d="M4575 5750 c3 -5 8 -10 11 -10 2 0 4 5 4 10 0 6 -5 10 -11 10 -5 0
-7 -4 -4 -10z"/>
<path d="M3932 5655 c-11 -24 -10 -25 17 -25 27 0 28 1 18 25 -15 31 -21 31
-35 0z"/>
<path d="M5550 5665 c-36 -7 -103 -25 -150 -39 -51 -15 -109 -26 -145 -26 -33
0 -68 0 -77 -1 -10 0 -18 -8 -19 -17 0 -15 -1 -15 -11 -1 -9 14 -14 13 -35 -9
-25 -25 -58 -106 -49 -121 3 -4 -8 -21 -25 -37 -21 -20 -28 -35 -25 -50 3 -12
3 -24 -1 -27 -10 -11 -32 13 -26 29 6 15 -12 20 -21 5 -3 -4 -24 -8 -46 -8
-45 0 -59 -8 -43 -24 7 -7 15 -6 26 5 9 9 18 16 21 16 12 0 6 -39 -7 -47 -7
-4 -21 -19 -30 -33 l-17 -24 0 26 c0 15 -4 30 -10 33 -5 3 -10 15 -10 26 0 10
-4 19 -10 19 -5 0 -10 -9 -10 -19 0 -11 -4 -23 -10 -26 -5 -3 -10 -17 -10 -30
0 -13 5 -27 10 -30 6 -3 10 1 10 9 0 9 5 16 10 16 6 0 10 -4 10 -9 0 -6 -4
-13 -10 -16 -5 -3 -10 -17 -10 -31 0 -24 -14 -32 -25 -14 -8 13 -27 2 -22 -13
6 -18 104 -29 128 -14 22 14 53 1 45 -18 -3 -8 -1 -15 4 -15 6 0 10 7 10 15 0
20 12 19 32 -4 13 -15 25 -18 64 -13 27 2 50 8 52 12 1 3 16 4 32 2 25 -4 30
-1 30 17 0 11 5 21 11 21 7 0 8 -14 4 -40 -7 -39 -6 -40 22 -40 26 1 27 1 9
15 -11 8 -16 21 -13 30 9 22 27 19 27 -5 0 -11 6 -20 14 -20 8 0 17 -6 20 -12
6 -15 36 18 36 39 0 19 -18 16 -24 -4 -3 -10 -4 -5 -2 10 3 24 0 28 -15 24
-11 -3 -19 1 -21 12 -2 9 -12 16 -23 16 -14 0 -21 8 -23 24 -4 28 -26 52 -43
49 -7 -2 -15 6 -17 17 -2 11 -10 25 -19 32 -20 16 -9 47 22 61 14 6 25 17 25
23 0 6 7 9 15 5 8 -3 15 -2 15 2 0 4 26 8 58 10 31 1 59 7 60 12 2 6 12 10 22
10 10 0 20 5 22 11 3 9 13 9 38 1 19 -6 71 -13 115 -14 46 -2 84 -8 90 -15 6
-6 39 -14 75 -17 103 -9 167 -32 185 -66 17 -33 22 -106 5 -80 -5 8 -10 26
-11 40 0 23 -1 23 -9 5 -8 -18 -9 -19 -9 -1 -1 13 -6 16 -18 11 -25 -11 -104
-21 -125 -17 -10 2 -18 10 -18 18 0 14 -28 19 -82 16 -15 -1 -29 2 -32 7 -8
13 -46 1 -46 -14 0 -7 -15 -16 -34 -19 -34 -7 -54 -30 -35 -42 19 -11 -26 -33
-77 -36 l-49 -3 -1 -38 c-1 -27 2 -35 9 -28 12 12 47 15 47 4 0 -3 -11 -21
-25 -38 -23 -32 -24 -33 -6 -49 10 -9 36 -20 56 -23 34 -6 38 -4 31 12 -6 18
-6 18 11 3 17 -16 20 -15 43 2 27 21 46 25 52 11 2 -5 33 -11 69 -15 75 -6 98
-13 101 -30 0 -6 2 -15 3 -21 2 -5 3 -16 4 -23 0 -7 5 -11 10 -8 12 8 20 -29
10 -45 -7 -12 -9 -12 -9 0 0 10 -3 11 -13 2 -19 -15 -27 -4 -28 38 -1 23 -3
28 -6 14 -2 -13 -9 -23 -15 -23 -6 0 -20 -8 -30 -17 -24 -22 -48 -25 -48 -7 0
19 -22 18 -64 -3 -35 -18 -51 -48 -40 -78 5 -13 2 -15 -20 -9 -15 4 -26 2 -26
-4 0 -13 -56 -42 -80 -42 -10 0 -23 -6 -29 -14 -15 -18 -95 -28 -128 -15 -20
7 -28 7 -35 -3 -6 -11 -10 -10 -17 0 -7 12 -12 12 -30 1 -18 -12 -23 -11 -37
9 -14 21 -17 22 -28 7 -11 -15 -17 -15 -54 -4 -23 6 -39 16 -36 21 5 8 -19 38
-31 38 -4 0 -13 7 -21 15 -9 8 -27 16 -42 16 -17 1 -21 3 -9 6 9 2 17 9 17 15
0 6 -7 7 -17 3 -45 -19 -63 -18 -63 4 0 17 -6 21 -30 21 -44 0 -110 36 -110
60 0 10 -4 22 -10 25 -5 3 -10 -1 -10 -9 0 -18 -16 -21 -25 -6 -3 6 -20 10
-36 10 -19 0 -32 6 -35 18 -18 55 -26 62 -75 62 -28 0 -50 5 -53 13 -5 10 -7
10 -12 0 -3 -7 -12 -13 -19 -13 -7 0 -16 6 -18 13 -4 9 -8 8 -17 -3 -9 -11
-13 -12 -17 -2 -7 19 -31 14 -38 -8 -7 -22 -20 -26 -31 -8 -5 7 -10 3 -16 -12
-7 -18 -5 -26 7 -32 16 -10 21 -58 6 -58 -12 0 -3 -104 11 -142 6 -15 14 -25
19 -22 5 3 13 -6 19 -20 5 -14 14 -26 20 -26 5 0 10 -9 10 -20 0 -11 9 -29 20
-40 11 -11 20 -31 20 -45 0 -19 7 -26 28 -31 39 -10 58 -26 56 -49 -1 -18 5
-20 60 -21 49 0 68 -5 100 -27 21 -15 52 -27 68 -27 15 0 54 -14 85 -30 31
-16 61 -30 68 -30 7 0 15 -7 19 -15 3 -8 13 -15 21 -15 9 0 13 -5 10 -10 -3
-6 1 -13 9 -16 8 -3 18 -15 22 -27 10 -33 56 -87 87 -103 21 -11 26 -20 22
-35 -4 -11 -3 -19 2 -18 21 4 33 -2 33 -16 0 -31 29 -75 46 -68 8 3 2 -9 -14
-26 -20 -23 -39 -33 -61 -33 -29 -1 -46 -18 -17 -18 15 0 29 -38 19 -53 -3 -5
-28 -7 -54 -5 -27 3 -49 1 -49 -3 0 -5 6 -9 13 -9 8 0 7 -3 -3 -10 -9 -6 -17
-5 -22 3 -4 7 -8 -7 -8 -30 0 -23 -4 -44 -9 -47 -5 -4 -12 -24 -16 -47 -4 -22
-12 -42 -18 -45 -15 -5 -18 -54 -4 -54 6 0 2 -7 -9 -15 -19 -14 -19 -15 4 -21
25 -7 30 -24 7 -24 -24 0 -17 -28 8 -33 12 -2 4 -5 -19 -6 -23 0 -57 -4 -75
-7 -27 -5 -31 -3 -19 6 13 10 12 11 -3 6 -10 -3 -23 -6 -28 -6 -6 0 -8 -4 -5
-9 3 -5 -1 -14 -9 -21 -13 -11 -14 -10 -10 1 5 15 1 16 -60 22 -14 1 -28 10
-31 20 -3 9 -15 17 -27 17 -22 1 -22 1 -3 15 17 13 17 15 4 15 -9 0 -28 -4
-42 -10 -30 -11 -56 -4 -56 16 0 16 -16 19 -25 4 -4 -6 -17 -3 -35 10 -15 11
-33 20 -38 20 -6 0 -14 5 -18 12 -4 7 -3 8 4 4 7 -4 12 -1 12 10 0 12 -6 15
-23 12 -26 -5 -55 17 -34 25 9 4 8 6 -1 6 -7 1 -21 9 -30 18 -16 16 -16 16 0
10 23 -8 33 10 14 28 -11 11 -16 12 -19 2 -4 -9 -6 -9 -6 1 -1 7 -13 17 -27
22 -19 8 -25 16 -21 30 3 11 -1 25 -9 31 -12 10 -13 8 -8 -7 6 -18 6 -18 -11
-2 -14 13 -22 14 -43 5 -20 -9 -26 -9 -30 1 -2 6 -13 12 -25 12 -18 0 -19 2
-7 10 9 5 19 5 26 0 6 -6 15 -6 19 -2 5 4 5 1 1 -5 -8 -15 3 -17 23 -4 23 15
6 35 -43 50 -25 7 -46 17 -46 22 0 5 -14 9 -31 9 -19 0 -28 4 -24 11 4 6 13 8
21 5 8 -3 14 1 14 8 0 8 -8 17 -17 20 -10 3 -29 13 -43 21 l-25 15 25 0 c21 1
19 3 -13 14 -21 8 -48 22 -60 32 -37 31 -87 87 -87 98 -1 6 -2 40 -4 76 -2 36
-1 69 2 74 3 5 6 38 7 73 l1 64 -70 -1 c-97 -2 -227 -20 -220 -32 3 -5 -5 -6
-18 -3 -12 3 -36 1 -53 -4 -16 -5 -23 -10 -15 -11 8 0 -1 -8 -20 -16 -19 -8
-43 -13 -52 -10 -11 2 -15 0 -11 -7 4 -6 -2 -8 -15 -5 -12 4 -20 2 -17 -2 3
-5 -4 -11 -15 -15 -11 -4 -17 -11 -14 -17 4 -7 2 -8 -4 -4 -6 4 -23 4 -37 0
-19 -5 -24 -11 -20 -25 5 -14 2 -17 -9 -13 -9 3 -13 11 -10 18 4 6 -5 0 -18
-14 -14 -14 -24 -27 -22 -29 3 -3 10 1 16 7 7 7 17 12 22 12 24 -1 -30 -30
-55 -30 -15 0 -29 -7 -33 -15 -3 -8 -27 -25 -53 -37 -26 -13 -56 -31 -67 -40
-10 -9 -25 -14 -32 -11 -10 4 -12 0 -8 -11 4 -11 0 -16 -14 -16 -11 0 -27 -6
-34 -13 -15 -15 -81 -47 -97 -47 -12 0 -14 -11 -5 -34 8 -20 65 -21 102 -2 15
7 61 21 102 30 41 9 117 30 167 46 51 17 117 33 147 36 66 8 67 9 93 64 43 93
121 150 206 150 52 0 70 -15 29 -24 -39 -8 -50 -18 -54 -46 -2 -14 -7 -31 -11
-37 -6 -9 -1 -13 15 -13 19 0 20 -2 8 -10 -13 -8 -13 -11 -1 -19 11 -7 9 -11
-8 -21 -18 -9 -20 -14 -10 -26 6 -8 14 -12 18 -9 3 3 0 10 -8 14 -10 7 -9 10
3 14 10 4 16 1 16 -8 0 -8 8 -15 18 -16 9 0 2 -5 -15 -10 -20 -6 -33 -16 -33
-26 0 -15 2 -15 19 1 17 16 18 15 16 -9 -2 -16 4 -30 18 -40 12 -8 16 -15 10
-15 -6 0 -18 7 -27 15 -10 11 -17 12 -22 4 -5 -8 -9 -8 -14 1 -4 6 -29 12 -56
13 -27 1 -52 7 -56 12 -5 6 -8 6 -8 -2 0 -6 -9 -9 -20 -6 -14 4 -20 0 -20 -12
0 -12 6 -16 20 -12 11 3 20 0 20 -6 0 -7 5 -5 10 3 5 8 10 10 10 4 0 -14 173
-35 179 -22 1 5 8 3 15 -5 6 -8 32 -22 59 -31 45 -17 63 -36 32 -36 -32 0 -64
-91 -70 -200 -5 -96 3 -121 29 -95 10 11 23 14 34 9 15 -6 15 -8 -3 -12 -11
-2 -26 -9 -33 -14 -6 -6 -51 -12 -100 -14 -48 -2 -166 -9 -262 -16 -96 -6
-183 -11 -193 -10 -9 0 -15 -2 -13 -7 3 -4 -7 -7 -22 -8 -56 -2 -122 -13 -139
-21 -18 -10 -97 -25 -109 -22 -4 1 -10 -3 -13 -9 -7 -11 -39 -19 -79 -20 -13
-1 -21 -5 -18 -10 3 -5 -3 -11 -14 -14 -11 -3 -23 -1 -26 4 -4 6 -10 6 -17 1
-19 -16 -127 -23 -127 -9 0 8 -3 7 -9 -2 -5 -8 -7 -21 -3 -30 4 -13 2 -13 -15
2 -20 17 -21 17 -27 0 -4 -10 -10 -13 -14 -7 -6 9 -21 10 -39 4 -5 -2 -12 -4
-18 -5 -88 -14 -95 -17 -95 -38 -1 -22 -21 -57 -34 -57 -4 0 -41 -16 -82 -35
-41 -19 -79 -35 -84 -35 -6 0 -10 -4 -10 -10 0 -5 -9 -10 -20 -10 -11 0 -23
-7 -26 -15 -4 -8 -15 -15 -26 -15 -12 0 -17 -4 -12 -12 4 -7 3 -8 -5 -4 -6 4
-23 -2 -37 -13 -15 -11 -30 -19 -34 -16 -4 3 -11 -2 -14 -11 -3 -8 -11 -12
-16 -9 -13 8 -42 -14 -35 -25 3 -5 -4 -6 -15 -3 -11 3 -20 1 -20 -5 0 -5 -14
-15 -30 -22 -17 -7 -29 -15 -26 -17 2 -3 13 0 25 6 11 7 22 7 25 2 4 -5 -12
-12 -34 -16 -22 -4 -40 -11 -40 -16 0 -5 -12 -12 -27 -15 -38 -10 -74 -30 -66
-37 3 -4 -1 -7 -10 -7 -9 0 -17 -5 -17 -11 0 -5 -4 -7 -10 -4 -5 3 -10 2 -10
-4 0 -6 -7 -7 -17 -4 -9 4 -14 2 -10 -3 3 -5 -14 -22 -39 -38 -24 -15 -42 -32
-39 -36 3 -5 0 -12 -6 -16 -8 -5 -9 -3 -4 6 5 8 3 11 -6 8 -8 -3 -13 -11 -11
-18 1 -6 -3 -10 -9 -8 -7 2 -28 -13 -47 -34 -19 -21 -39 -35 -45 -31 -5 3 -7
1 -4 -5 13 -19 -4 -43 -25 -36 -14 4 -18 2 -14 -5 4 -6 3 -11 -3 -11 -6 0 -7
-7 -4 -17 4 -11 3 -14 -6 -9 -13 9 -81 -60 -81 -81 0 -7 -6 -13 -13 -13 -8 0
-14 -6 -15 -12 -8 -65 -12 -72 -30 -52 -4 4 -1 4 5 0 9 -5 11 -2 6 9 -8 22
-23 -1 -17 -28 2 -12 -3 -21 -16 -24 -11 -3 -20 -14 -20 -24 0 -10 -4 -20 -10
-24 -5 -3 -7 -12 -3 -20 3 -10 -1 -15 -12 -15 -9 0 -13 -5 -10 -10 4 -6 1 -18
-6 -26 -15 -18 -59 -123 -59 -141 0 -10 -23 -56 -48 -98 -4 -5 -7 -14 -8 -20
0 -5 -2 -16 -2 -23 -1 -7 -7 -10 -13 -6 -8 4 -9 0 -4 -15 3 -11 2 -21 -3 -21
-5 0 -9 -6 -9 -14 0 -8 3 -14 6 -14 15 3 70 -29 64 -37 -5 -4 -2 -5 5 -1 8 5
21 1 32 -9 10 -9 30 -19 44 -23 l26 -7 -22 -29 c-40 -49 -58 -69 -58 -63 0 3
-12 -5 -26 -18 -15 -14 -32 -25 -39 -25 -19 0 -55 -36 -56 -56 0 -11 -3 -14
-6 -7 -3 10 -7 10 -18 0 -7 -7 -11 -15 -8 -20 2 -4 -1 -7 -8 -7 -7 0 -9 -3 -6
-6 4 -4 13 -1 22 6 8 7 15 9 15 4 0 -5 7 2 16 14 8 12 32 30 52 39 35 16 45
19 66 22 5 0 3 8 -4 16 -11 13 -9 14 16 0 24 -12 30 -12 44 0 8 7 18 14 23 14
23 0 117 33 117 41 0 17 29 11 38 -8 5 -9 7 -26 5 -37 -2 -11 -4 -32 -4 -48 1
-30 -25 -49 -39 -28 -5 9 -9 7 -12 -7 -4 -13 -18 -21 -44 -26 -22 -3 -50 -9
-63 -12 -22 -7 -23 -5 -16 27 l7 34 -34 -38 c-19 -21 -44 -39 -55 -40 -12 0
-19 -5 -17 -9 3 -4 -2 -8 -11 -8 -10 0 -13 -5 -9 -12 6 -10 5 -10 -7 -1 -12
10 -18 9 -32 -7 -9 -11 -28 -20 -42 -20 -14 0 -25 -4 -25 -9 0 -5 -3 -17 -7
-27 -4 -12 -3 -15 5 -10 8 5 10 2 6 -8 -3 -9 -11 -13 -18 -9 -22 14 -35 11
-42 -9 -3 -11 -1 -25 5 -31 6 -6 11 -20 11 -32 0 -15 10 -25 35 -34 39 -14 80
-61 91 -106 4 -16 21 -50 38 -75 17 -25 39 -61 50 -80 10 -19 46 -78 79 -130
76 -120 94 -152 127 -220 15 -30 65 -125 112 -210 46 -85 97 -182 112 -215 16
-33 70 -145 121 -250 51 -104 104 -215 119 -246 14 -31 33 -59 42 -63 21 -8
1106 -8 1222 0 l90 7 -5 36 c-2 20 -9 48 -15 63 -14 38 30 135 66 144 15 3 28
17 35 35 11 31 17 34 41 19 11 -6 22 -1 42 23 32 38 33 45 11 69 -9 11 -11 18
-5 18 7 0 12 9 12 20 0 11 12 39 26 61 l26 41 -23 21 c-18 17 -34 21 -77 20
-30 -1 -58 -7 -62 -13 -12 -20 -50 11 -50 40 0 14 -4 40 -9 58 -8 27 -7 32 7
33 31 2 87 -2 115 -7 23 -5 27 -2 27 18 0 13 -7 36 -15 52 -8 15 -15 35 -15
42 0 8 -4 14 -10 14 -5 0 -10 10 -10 21 0 16 -5 20 -19 16 -10 -2 -25 -1 -32
4 -11 8 -9 13 9 28 23 20 29 55 11 67 -6 3 -8 17 -5 30 4 14 2 24 -4 24 -16 0
-29 43 -18 57 13 16 18 93 5 93 -6 0 -7 17 -3 43 4 23 9 74 12 112 5 87 23
151 48 173 18 16 19 16 13 0 -8 -22 6 -23 23 -3 7 8 17 12 22 9 5 -3 12 3 15
14 2 11 15 23 26 26 34 9 40 7 34 -9 -9 -21 14 -31 28 -12 7 10 19 17 26 17 8
0 20 9 27 20 7 11 21 20 32 20 10 0 40 7 66 16 46 16 48 15 64 -6 l16 -21 14
26 c8 15 10 29 4 34 -16 15 -132 -9 -299 -63 -55 -18 -107 -35 -115 -37 -16
-4 -24 75 -30 276 -2 44 -7 91 -12 104 -5 14 -8 88 -8 165 1 78 2 149 2 158
-1 14 4 15 26 7 14 -6 32 -15 39 -21 10 -8 13 -7 13 3 0 8 -20 22 -44 32 -55
23 -76 45 -56 57 11 7 11 11 1 24 -17 21 -7 48 15 39 14 -5 15 -3 5 15 -6 12
-13 70 -16 129 -2 59 -9 178 -15 263 -7 85 -14 180 -16 210 -1 30 -8 93 -14
140 -6 47 -15 114 -20 150 -4 36 -13 85 -20 110 -15 58 -6 104 25 128 39 31
346 46 455 21 259 -57 409 -96 500 -130 112 -42 197 -69 215 -69 17 0 91 -37
113 -57 7 -7 30 -14 50 -14 22 -1 29 -3 17 -6 -11 -3 -24 -11 -28 -19 -4 -8
-12 -14 -17 -14 -6 0 -39 -20 -75 -44 -66 -46 -83 -58 -113 -87 -9 -9 -26 -19
-37 -24 -13 -5 -16 -9 -7 -12 7 -3 19 1 27 7 11 9 15 10 15 1 0 -7 4 -10 10
-6 5 3 7 12 4 19 -7 17 27 31 37 14 5 -8 10 -3 14 15 8 29 20 35 28 15 4 -9 6
-8 6 2 1 9 17 22 36 29 19 7 35 17 35 22 0 5 9 9 19 9 11 0 22 4 25 8 3 5 18
10 33 10 49 3 68 7 74 15 3 4 13 5 23 1 15 -6 14 -8 -6 -23 -13 -9 -27 -16
-31 -16 -4 0 -11 -5 -15 -10 -4 -6 -26 -23 -50 -39 -24 -17 -49 -37 -55 -46
-7 -9 -22 -22 -35 -29 -12 -7 -20 -16 -16 -22 3 -5 1 -16 -6 -24 -6 -7 -7 -16
-2 -19 5 -3 24 15 42 40 19 24 53 56 77 70 24 14 43 29 43 33 0 12 49 29 75
26 11 -1 43 -12 70 -24 69 -32 222 -81 252 -81 21 0 24 4 19 23 -5 21 0 24 89
43 52 11 95 17 95 12 0 -4 -6 -8 -14 -8 -9 0 -12 -7 -9 -20 3 -12 -2 -29 -11
-39 -21 -24 -12 -30 39 -26 22 2 71 6 109 9 39 3 72 10 75 15 3 5 26 12 51 15
138 22 290 105 490 269 19 15 53 43 75 60 21 18 77 69 122 113 46 45 103 95
126 110 23 16 94 80 157 144 63 63 134 128 158 143 23 15 40 32 37 37 -4 6 -1
10 4 10 6 0 11 -5 11 -12 0 -6 3 -8 7 -4 5 4 1 13 -9 20 -14 10 -8 14 38 24
50 12 57 11 83 -7 21 -15 37 -19 65 -14 39 6 49 23 14 23 -19 0 -20 2 -8 10
11 7 11 10 2 10 -7 0 -11 4 -7 9 3 5 -5 17 -17 25 -29 21 -10 20 31 0 18 -9
34 -14 37 -11 9 9 -56 48 -67 41 -7 -4 -9 -3 -5 4 6 10 -31 27 -80 36 -10 3
-32 9 -47 15 -16 6 -44 11 -63 11 -20 0 -34 4 -32 10 2 5 28 28 59 52 31 24
109 86 175 139 188 151 288 219 418 284 91 46 120 65 118 78 -2 11 2 15 13 11
9 -4 15 -1 15 9 0 19 -49 59 -61 51 -5 -3 -9 2 -9 10 0 12 -11 16 -50 16 -31
0 -64 8 -87 20 -41 22 -83 26 -83 9 0 -6 7 -9 14 -6 11 4 13 1 9 -10 -4 -11
-2 -14 5 -9 8 4 10 2 6 -7 -10 -27 -90 -43 -98 -20 -6 15 -93 18 -98 4 -2 -6
-30 -6 -75 1 -40 6 -70 15 -67 20 3 4 -4 8 -16 8 -20 0 -20 1 -5 17 14 14 18
14 26 2 5 -8 9 -9 9 -3 0 7 10 9 25 6 14 -2 22 -8 19 -13 -3 -5 4 -9 15 -9 10
0 21 5 23 11 3 8 22 8 72 1 38 -6 73 -9 78 -6 4 3 8 0 8 -6 0 -7 7 -4 16 5 9
9 15 17 13 18 -15 10 -121 48 -154 56 -22 5 -60 16 -85 25 -25 9 -71 21 -103
27 -37 7 -57 15 -54 22 5 12 -16 38 -30 37 -12 -1 -96 11 -115 16 -10 3 -19
-3 -23 -16 -3 -11 -11 -20 -17 -20 -6 0 -6 6 2 15 21 25 -7 18 -53 -13 -35
-24 -97 -52 -114 -52 -2 0 -1 5 3 11 8 13 -41 7 -166 -23 -156 -37 -189 -48
-195 -69 -4 -10 -10 -19 -15 -19 -12 0 8 52 23 62 9 6 9 10 -2 17 -7 5 -11 13
-8 18 3 5 8 20 10 34 3 13 14 51 25 84 23 69 37 147 24 127 -6 -10 -9 -4 -8
17 1 28 2 29 14 14 9 -13 12 -14 13 -2 0 8 3 26 5 42 3 16 0 27 -7 27 -8 0 -9
14 -5 43 6 45 1 60 -26 70 -10 3 -18 14 -18 22 0 9 -4 14 -10 10 -5 -3 -21 19
-35 50 -15 30 -31 55 -35 55 -5 0 -16 14 -25 30 -15 28 -19 30 -78 30 -53 0
-116 12 -177 33 -8 3 -44 -1 -80 -8z m-510 -295 c0 -5 -5 -10 -11 -10 -5 0 -7
5 -4 10 3 6 8 10 11 10 2 0 4 -4 4 -10z m859 -124 c-11 -58 -11 -58 -33 -50
-22 9 -20 35 4 41 12 3 20 14 20 27 0 20 9 40 16 33 1 -1 -2 -24 -7 -51z
m-729 -16 c0 -16 -4 -30 -10 -30 -5 0 -10 14 -10 30 0 17 5 30 10 30 6 0 10
-13 10 -30z m-300 -20 c0 -5 -4 -10 -10 -10 -5 0 -10 5 -10 10 0 6 5 10 10 10
6 0 10 -4 10 -10z m528 -82 c-7 -19 -38 -22 -38 -4 0 10 9 16 21 16 12 0 19
-5 17 -12z m1072 -101 c0 -2 -12 -14 -27 -28 l-28 -24 24 28 c23 25 31 32 31
24z m-630 -97 c0 -5 -2 -10 -4 -10 -3 0 -8 5 -11 10 -3 6 -1 10 4 10 6 0 11
-4 11 -10z m1371 -90 c17 0 9 -20 -8 -21 -15 0 -15 -2 2 -9 15 -7 16 -9 4 -9
-9 -1 -22 -8 -29 -16 -9 -11 -16 -12 -26 -4 -7 6 -22 8 -34 4 -11 -3 -20 -3
-20 2 1 14 74 62 88 57 8 -2 18 -4 23 -4z m-203 -32 c-3 -7 -13 -15 -23 -16
-15 -4 -16 -2 -4 12 17 19 32 21 27 4z m102 -44 c0 -3 -6 -12 -14 -19 -12 -12
-16 -12 -26 -1 -9 11 -7 15 7 19 28 7 33 7 33 1z m30 -4 c0 -5 -4 -10 -10 -10
-5 0 -10 5 -10 10 0 6 5 10 10 10 6 0 10 -4 10 -10z m-99 -23 c-11 -14 -5 -27
11 -27 5 0 6 5 2 12 -4 7 -3 8 4 4 18 -11 14 -23 -8 -29 -25 -6 -43 20 -26 39
15 18 32 18 17 1z m-32 -31 c7 -8 8 -17 3 -20 -6 -3 -12 3 -15 14 -6 24 -4 25
12 6z m-29 -16 c0 -5 -5 -10 -11 -10 -5 0 -7 5 -4 10 3 6 8 10 11 10 2 0 4 -4
4 -10z m-27 -37 c-7 -2 -19 -2 -25 0 -7 3 -2 5 12 5 14 0 19 -2 13 -5z m-63
-43 c-11 -11 -23 -20 -27 -20 -3 0 2 9 12 20 10 11 22 20 27 20 4 0 -1 -9 -12
-20z m-60 -30 c0 -5 -5 -10 -11 -10 -5 0 -7 5 -4 10 3 6 8 10 11 10 2 0 4 -4
4 -10z m-3283 -36 c-3 -3 -12 -4 -19 -1 -8 3 -5 6 6 6 11 1 17 -2 13 -5z
m3233 -24 c0 -5 -4 -10 -10 -10 -5 0 -10 5 -10 10 0 6 5 10 10 10 6 0 10 -4
10 -10z m-3083 -212 c-3 -8 -6 -5 -6 6 -1 11 2 17 5 13 3 -3 4 -12 1 -19z
m2713 12 c8 -5 11 -10 5 -10 -5 0 -17 5 -25 10 -8 5 -10 10 -5 10 6 0 17 -5
25 -10z m77 -45 c-6 -6 -16 -12 -22 -13 -5 0 -20 -4 -32 -7 -15 -5 -23 -3 -23
5 0 7 6 10 14 7 8 -3 17 0 19 7 3 8 17 14 30 14 20 0 23 -3 14 -13z m-194 -22
c-7 -2 -19 -2 -25 0 -7 3 -2 5 12 5 14 0 19 -2 13 -5z m92 -32 c3 -5 0 -13 -6
-17 -8 -5 -9 -3 -4 6 6 9 1 10 -16 5 -19 -5 -21 -4 -9 4 19 13 27 14 35 2z
m-2788 -17 c-3 -3 -12 -4 -19 -1 -8 3 -5 6 6 6 11 1 17 -2 13 -5z m3165 -81
c8 -10 18 -25 22 -33 4 -8 1 -7 -7 3 -9 10 -24 25 -34 32 -10 8 -13 15 -7 15
6 0 18 -8 26 -17z m-2682 -69 c0 -14 -3 -14 -15 -4 -8 7 -15 14 -15 16 0 2 7
4 15 4 8 0 15 -7 15 -16z m143 -88 c4 -10 1 -13 -9 -9 -15 6 -19 23 -5 23 5 0
11 -7 14 -14z m577 -322 c0 -2 -7 -4 -15 -4 -8 0 -15 4 -15 10 0 5 7 7 15 4 8
-4 15 -8 15 -10z m-3384 -823 c0 -11 -5 -17 -13 -14 -10 4 -11 9 -2 19 15 18
15 18 15 -5z m-281 -831 c-3 -5 -12 -10 -18 -10 -7 0 -6 4 3 10 19 12 23 12
15 0z m2055 -1805 c0 -14 -4 -25 -10 -25 -11 0 -14 33 -3 43 11 11 13 8 13
-18z"/>
<path d="M4510 5585 c0 -23 -30 -65 -46 -65 -8 0 -14 -6 -14 -14 0 -7 -7 -19
-15 -26 -8 -7 -14 -25 -12 -44 1 -20 -2 -30 -10 -28 -14 2 -16 -8 -7 -32 8
-21 24 -21 24 0 0 11 6 15 20 11 24 -6 54 15 48 34 -3 8 3 25 14 38 13 17 15
28 8 35 -12 12 -13 56 -1 56 5 0 11 -9 14 -20 3 -11 11 -20 19 -20 9 0 10 2 1
8 -6 4 -14 24 -18 45 -7 36 -25 52 -25 22z"/>
<path d="M3970 5541 c0 -6 -7 -8 -15 -5 -8 4 -15 1 -15 -7 0 -7 -3 -10 -6 -6
-4 3 -19 0 -33 -8 -43 -22 -200 -28 -235 -10 -24 13 -31 13 -38 3 -6 -10 -8
-10 -8 1 0 8 -7 11 -20 8 -11 -3 -20 -1 -20 4 0 5 -4 9 -10 9 -14 0 -12 -27 3
-33 10 -4 10 -6 0 -6 -18 -1 -16 -28 3 -35 8 -3 13 -9 10 -14 -2 -4 0 -14 6
-22 8 -12 9 -12 4 2 -3 10 -1 20 4 23 6 4 10 -8 10 -25 0 -29 34 -109 51 -120
4 -3 9 -12 11 -20 2 -8 11 -22 20 -31 10 -9 19 -25 21 -35 3 -18 28 -78 48
-116 5 -10 9 -26 9 -37 0 -10 8 -29 19 -42 10 -13 22 -39 26 -58 5 -24 10 -30
16 -20 5 8 4 15 -1 17 -6 2 -9 13 -9 25 1 17 2 18 6 5 2 -10 8 -18 13 -18 5 0
13 -19 18 -42 7 -35 11 -39 16 -23 4 11 11 27 15 35 9 18 3 147 -9 205 -6 25
-5 41 0 43 6 2 3 10 -5 19 -8 8 -15 27 -15 42 0 15 -9 43 -19 64 -10 20 -15
37 -10 37 6 0 6 8 0 19 -7 11 -7 30 -2 49 8 25 6 32 -7 35 -11 3 -9 5 7 6 17
1 22 -3 17 -14 -3 -8 -2 -15 2 -15 4 0 20 -11 37 -24 25 -20 28 -26 16 -40
-15 -18 -1 -22 16 -5 8 8 11 6 10 -7 -1 -10 3 -19 8 -19 6 0 16 -4 23 -9 7 -4
19 -3 27 4 12 10 15 10 15 0 0 -8 2 -11 5 -8 3 3 1 18 -5 34 -9 23 -9 27 1 17
35 -35 42 7 12 72 -13 28 -23 60 -23 72 0 12 -4 25 -10 28 -5 3 -10 2 -10 -4z
m-343 -153 c-3 -7 -5 -2 -5 12 0 14 2 19 5 13 2 -7 2 -19 0 -25z m213 -329 c0
-6 -4 -7 -10 -4 -5 3 -10 11 -10 16 0 6 5 7 10 4 6 -3 10 -11 10 -16z"/>
<path d="M5520 5411 c0 -5 -10 -11 -22 -13 -22 -3 -22 -4 -3 -9 22 -6 52 16
35 26 -6 3 -10 2 -10 -4z"/>
<path d="M4335 5380 c-3 -5 -1 -18 4 -27 9 -16 10 -14 11 10 0 28 -5 34 -15
17z"/>
<path d="M5700 5355 c0 -10 10 -15 30 -15 22 0 28 4 24 15 -4 8 -17 15 -30 15
-15 0 -24 -6 -24 -15z"/>
<path d="M4391 5342 c-1 -13 3 -21 7 -18 5 3 8 -4 8 -16 -1 -12 5 -23 12 -25
8 -3 12 7 12 32 0 28 -3 36 -14 32 -8 -3 -17 -1 -20 6 -2 7 -5 2 -5 -11z"/>
<path d="M4030 5295 c0 -8 7 -15 16 -15 14 0 14 3 4 15 -7 8 -14 15 -16 15 -2
0 -4 -7 -4 -15z"/>
<path d="M6064 5234 c-4 -22 -15 -57 -24 -79 -10 -22 -23 -60 -29 -84 -7 -23
-15 -50 -18 -60 -4 -11 -3 -13 4 -6 10 10 37 80 38 100 1 6 6 19 12 30 13 24
35 126 29 132 -3 3 -8 -12 -12 -33z"/>
<path d="M4094 5195 c-6 -15 2 -35 15 -35 5 0 11 11 13 25 6 28 -18 36 -28 10z"/>
<path d="M4330 5189 c0 -5 5 -7 10 -4 6 3 10 8 10 11 0 2 -4 4 -10 4 -5 0 -10
-5 -10 -11z"/>
<path d="M4074 5139 c-3 -6 -1 -16 5 -22 8 -8 11 -5 11 11 0 24 -5 28 -16 11z"/>
<path d="M4125 5137 c-4 -9 -4 -29 1 -45 4 -15 8 -32 8 -38 1 -15 36 -48 36
-34 0 6 -5 20 -10 30 -8 15 -6 21 6 28 11 6 15 16 11 26 -4 10 -11 14 -17 11
-6 -3 -14 4 -19 17 -8 20 -10 21 -16 5z"/>
<path d="M4230 5030 c-13 -8 -12 -10 3 -10 9 0 17 5 17 10 0 12 -1 12 -20 0z"/>
<path d="M4188 4963 c7 -3 16 -2 19 1 4 3 -2 6 -13 5 -11 0 -14 -3 -6 -6z"/>
<path d="M4313 4718 c-1 -27 1 -29 7 -13 11 27 12 45 2 45 -5 0 -9 -15 -9 -32z"/>
<path d="M4350 4704 c0 -8 5 -12 10 -9 6 3 10 10 10 16 0 5 -4 9 -10 9 -5 0
-10 -7 -10 -16z"/>
<path d="M4395 4630 c3 -5 8 -10 11 -10 2 0 4 5 4 10 0 6 -5 10 -11 10 -5 0
-7 -4 -4 -10z"/>
<path d="M4422 4628 c6 -18 28 -21 28 -4 0 9 -7 16 -16 16 -9 0 -14 -5 -12
-12z"/>
<path d="M3713 4088 c-22 -28 -23 -36 -5 -31 10 2 18 13 19 24 2 22 -1 24 -14
7z"/>
<path d="M5008 4043 c6 -2 18 -2 25 0 6 3 1 5 -13 5 -14 0 -19 -2 -12 -5z"/>
<path d="M2725 3960 c-3 -5 -1 -10 4 -10 6 0 11 5 11 10 0 6 -2 10 -4 10 -3 0
-8 -4 -11 -10z"/>
<path d="M3626 3934 c-10 -27 -7 -36 9 -20 8 8 15 19 15 25 0 17 -17 13 -24
-5z"/>
<path d="M4416 3802 c-3 -6 -1 -14 5 -17 15 -10 25 3 12 16 -7 7 -13 7 -17 1z"/>
<path d="M4460 3780 c-8 -5 -12 -11 -9 -14 2 -3 11 -1 19 4 8 5 12 11 9 14 -2
3 -11 1 -19 -4z"/>
<path d="M7083 3784 c5 -5 41 -16 80 -24 84 -18 90 -36 11 -33 -30 1 -54 -1
-52 -6 9 -21 71 -177 102 -257 20 -50 36 -100 36 -111 0 -10 7 -43 15 -73 30
-112 54 -228 69 -335 27 -188 47 -277 60 -260 17 22 34 4 38 -40 3 -35 6 -40
31 -43 23 -3 27 0 27 22 0 31 16 33 50 6 23 -17 25 -26 28 -114 4 -107 0 -114
-59 -98 -32 8 -34 11 -31 47 4 40 -7 55 -44 55 -32 0 -36 -43 -18 -163 21
-135 26 -247 13 -263 -7 -8 -7 -14 1 -19 5 -3 10 -19 10 -36 0 -29 0 -29 -47
-23 -78 10 -568 6 -682 -5 -58 -6 -194 -18 -301 -26 -229 -17 -472 -42 -550
-55 -192 -33 -295 -42 -495 -45 -163 -3 -268 -10 -405 -29 -273 -37 -269 -36
-355 -41 -44 -2 -132 -7 -195 -10 -63 -4 -153 -12 -200 -19 -60 -9 -89 -10
-98 -3 -10 8 -25 5 -55 -11 -49 -24 -215 -65 -230 -55 -6 3 -7 1 -3 -5 4 -7 2
-12 -3 -12 -6 0 -2 -9 9 -20 27 -27 26 -46 -2 -20 -26 24 -40 26 -31 3 5 -14
3 -13 -13 3 -13 12 -16 22 -10 26 10 7 2 12 -16 9 -4 0 -3 11 2 25 7 17 7 23
0 19 -6 -4 -13 7 -16 23 -3 16 -12 29 -19 29 -19 0 -26 -20 -13 -38 8 -11 9
-10 4 4 -3 9 -1 17 4 17 6 0 11 -6 11 -12 1 -7 3 -23 4 -35 2 -23 56 -113 88
-148 10 -11 20 -31 23 -45 3 -14 9 -33 14 -42 6 -10 7 -25 3 -34 -4 -12 -3
-15 5 -10 17 10 15 -1 -5 -24 -11 -13 -18 -40 -20 -70 -1 -43 1 -50 17 -50 10
0 22 -4 25 -10 3 -5 17 -10 30 -10 21 0 27 -9 49 -82 14 -46 31 -112 40 -148
8 -36 28 -98 44 -137 l30 -73 -31 18 c-16 9 -32 25 -35 35 -2 9 -10 17 -17 17
-7 0 -15 6 -18 13 -10 27 -17 -2 -11 -46 7 -48 26 -62 71 -51 36 10 60 -11 67
-58 12 -86 18 -113 26 -133 24 -60 41 -117 36 -122 -3 -4 -6 -1 -6 6 0 7 -10
12 -22 11 -44 -4 -48 -1 -48 37 0 33 1 35 13 18 10 -12 16 -14 21 -7 10 16 -2
32 -23 32 -9 0 -22 5 -29 12 -9 9 -12 7 -12 -10 0 -12 4 -22 8 -22 4 0 9 -15
10 -32 2 -18 4 -42 5 -53 1 -12 -3 -19 -11 -17 -7 1 -19 -13 -27 -32 -8 -19
-19 -37 -25 -41 -5 -3 -10 -14 -10 -24 0 -28 -30 -81 -46 -81 -9 0 -12 -5 -8
-11 3 -6 -6 -21 -21 -33 l-28 -23 21 -21 c12 -12 31 -22 41 -22 11 0 22 -6 25
-12 5 -10 7 -10 12 0 3 7 24 12 49 12 26 0 47 6 55 15 7 8 19 15 26 15 8 0 14
5 14 11 0 8 4 8 15 -1 8 -6 19 -9 25 -5 5 3 10 -1 10 -9 0 -19 -1 -19 44 -1
42 18 56 13 56 -18 0 -12 10 -52 21 -89 l22 -68 1230 2 1231 3 2 140 c4 184
11 284 29 430 9 66 20 154 25 195 13 111 21 141 38 147 8 4 19 -1 24 -10 14
-26 38 -8 38 29 0 19 5 34 10 34 6 0 10 5 10 11 0 20 -24 3 -30 -21 -4 -16
-14 -24 -33 -26 -27 -3 -27 -1 -21 34 4 20 10 42 15 48 5 6 6 13 3 17 -8 7 64
307 102 425 8 23 14 51 14 62 0 10 4 21 9 24 5 4 12 24 16 46 4 22 10 42 15
45 8 5 22 80 25 135 1 14 8 25 15 25 7 0 15 6 18 14 3 8 0 11 -6 8 -13 -9 -19
27 -14 81 4 39 6 42 33 42 23 0 29 -4 30 -22 l0 -23 9 23 c9 21 22 27 45 22 6
-1 29 -4 53 -6 69 -6 75 -13 78 -88 1 -36 -2 -66 -7 -66 -5 0 -9 -9 -9 -20 0
-11 4 -20 9 -20 5 0 11 -9 14 -19 5 -20 -11 -31 -68 -49 -23 -7 -30 -15 -30
-34 1 -42 -34 -23 -41 23 -5 28 -11 39 -24 39 -14 0 -17 -7 -14 -35 1 -19 -1
-35 -6 -35 -4 0 -6 -10 -2 -22 3 -14 2 -19 -6 -14 -7 4 -12 1 -12 -8 0 -9 8
-16 18 -16 14 -1 13 -4 -8 -22 -18 -15 -20 -19 -6 -15 14 6 17 4 12 -9 -3 -8
-6 -20 -6 -26 0 -6 -7 -7 -16 -4 -13 5 -15 2 -11 -14 3 -11 1 -20 -4 -20 -5 0
-9 -9 -9 -20 0 -10 -8 -24 -17 -29 -16 -9 -16 -12 -3 -21 8 -5 24 -10 35 -10
14 0 16 -3 7 -12 -8 -8 -15 -8 -25 1 -12 9 -16 8 -21 -5 -9 -24 -7 -41 4 -24
7 12 11 10 18 -9 12 -32 -7 -110 -29 -122 -11 -5 -16 -16 -13 -24 4 -10 0 -15
-15 -15 -22 0 -29 -16 -10 -22 6 -2 0 -15 -15 -28 -14 -14 -26 -30 -26 -37 0
-6 -5 -15 -11 -18 -12 -8 -3 58 12 87 11 21 -4 32 -31 23 -23 -7 -27 -25 -5
-25 20 0 8 -59 -17 -84 -17 -15 -22 -16 -29 -5 -6 10 -9 8 -9 -9 0 -19 4 -22
20 -17 16 5 20 2 20 -15 0 -12 4 -18 10 -15 6 4 8 15 5 25 -4 12 1 19 14 23
26 6 34 -2 18 -22 -10 -14 -10 -14 5 -3 9 8 22 11 27 7 6 -3 16 3 23 15 17 26
29 25 50 -4 23 -31 36 -135 19 -146 -10 -5 -7 -17 8 -46 23 -42 27 -64 11 -64
-5 0 -10 5 -10 10 0 6 -4 10 -10 10 -5 0 -10 -13 -10 -30 0 -16 5 -30 10 -30
6 0 10 5 10 10 0 21 18 9 25 -17 4 -19 9 -23 15 -14 7 13 17 -36 23 -114 1
-16 5 -33 10 -36 11 -8 -3 -39 -18 -39 -8 0 -16 -10 -18 -22 l-4 -23 -2 23
c-1 27 -21 30 -21 2 0 -11 -4 -20 -10 -20 -5 0 -10 9 -10 20 0 11 -5 20 -11
20 -7 0 -9 -11 -6 -30 4 -16 2 -32 -3 -35 -6 -3 -10 -35 -10 -71 0 -54 3 -64
18 -64 16 -1 16 -1 0 -11 -22 -12 -23 -29 -3 -29 22 0 18 -18 -7 -31 -32 -16
-31 -15 -18 -39 15 -27 -10 -129 -42 -173 -15 -22 -17 -32 -9 -40 9 -9 279
-13 1034 -15 889 -3 1032 -1 1102 12 44 9 141 23 215 31 112 13 138 19 152 35
17 21 34 119 25 143 -3 8 -7 113 -8 235 -2 159 -6 219 -14 215 -14 -5 -41 25
-31 34 4 4 12 1 17 -7 9 -13 10 -13 6 0 -2 9 -17 15 -38 16 -19 1 -25 0 -15
-3 15 -4 16 -7 5 -14 -11 -7 -11 -9 -1 -9 7 0 22 -9 33 -19 21 -19 21 -19 -22
-4 -24 8 -54 12 -67 10 -12 -2 -25 0 -28 4 -3 5 10 10 28 10 18 1 25 3 15 6
-9 2 -15 9 -12 14 4 5 -1 9 -9 9 -8 0 -18 -5 -21 -10 -5 -8 -11 -7 -21 1 -11
9 -17 9 -29 -1 -10 -9 -15 -9 -15 -1 0 6 -4 11 -10 11 -5 0 -7 -8 -4 -18 5
-14 4 -15 -5 -2 -10 13 -12 13 -22 0 -8 -12 -9 -10 -4 8 7 24 -4 29 -23 10 -9
-9 -12 -9 -12 0 0 7 -10 12 -22 12 -17 0 -19 3 -9 9 7 5 29 5 48 0 35 -7 63
-3 63 10 0 3 -29 5 -64 5 -56 -2 -64 0 -59 14 4 13 3 14 -5 3 -6 -9 -19 -11
-41 -6 -18 4 -31 3 -31 -3 0 -5 -9 -12 -20 -15 -11 -3 -20 -1 -20 4 0 5 8 9
18 10 11 0 12 2 4 6 -7 3 -18 0 -25 -5 -22 -19 -34 1 -42 68 -22 199 -42 300
-126 635 -61 240 -78 294 -79 246 l0 -24 -19 24 c-10 13 -21 40 -25 61 -6 34
-5 37 24 43 23 5 30 12 30 30 0 30 -29 47 -67 39 -24 -5 -31 -1 -43 20 -18 34
-9 41 56 41 68 0 69 8 11 107 -30 50 -50 74 -65 76 -12 2 -22 1 -22 -2 0 -3
14 -37 31 -76 18 -39 30 -73 27 -75 -2 -3 -18 -8 -35 -11 -30 -6 -31 -5 -56
63 -36 98 -60 174 -55 178 2 3 43 1 90 -3 78 -7 85 -6 80 10 -2 10 -10 18 -16
18 -16 0 -47 55 -41 72 5 14 -33 84 -41 75 -3 -3 -1 -14 4 -24 6 -10 13 -39
17 -65 6 -40 4 -48 -12 -57 -57 -30 -111 54 -120 188 -5 70 -4 81 10 81 9 0
19 -11 23 -23 4 -18 11 -23 28 -20 13 3 28 -2 35 -11 21 -25 33 -19 16 8 -9
14 -29 29 -45 34 -35 13 -90 72 -112 122 -16 37 -16 38 8 61 27 25 32 44 8 35
-8 -3 -12 -2 -9 4 3 5 -7 16 -23 24 -27 14 -42 40 -42 74 0 10 9 9 35 -7 38
-22 40 -20 24 27 -9 28 -13 30 -31 21 -11 -6 -21 -9 -23 -7 -2 2 -6 30 -9 63
-6 72 -14 97 -29 88 -6 -3 -7 -1 -3 6 5 7 -12 31 -43 62 -55 54 -66 77 -28 59
21 -11 21 -10 3 4 -11 9 -25 16 -31 16 -14 0 -55 54 -55 73 0 8 -42 41 -92 74
-102 66 -188 116 -188 107 0 -4 -9 3 -75 62 -55 50 -142 85 -212 86 -13 0 -20
4 -17 9 3 5 -4 9 -15 9 -11 0 -22 4 -26 9 -3 5 -34 13 -70 16 -47 5 -65 11
-65 22 0 8 -4 11 -10 8 -5 -3 -10 0 -10 7 -1 8 -6 6 -15 -6 -14 -18 -17 -18
-127 3 -147 28 -141 26 -128 51 6 11 7 21 3 21 -4 1 -17 3 -28 4 -39 5 -146
26 -163 32 -10 4 -14 2 -9 -3z m371 -1904 c5 -17 4 -20 -2 -10 -5 8 -13 26
-16 40 -5 17 -4 20 2 10 5 -8 13 -26 16 -40z m-74 -171 c0 -10 -2 -19 -4 -19
-2 0 -11 -3 -20 -6 -13 -5 -13 -1 -3 25 12 32 27 32 27 0z m-3406 -24 c-4 -8
-10 -12 -15 -9 -11 6 -2 24 11 24 5 0 7 -7 4 -15z m3416 -29 c0 -13 2 -30 5
-38 3 -7 1 -19 -4 -26 -7 -12 -12 -12 -30 -1 -22 14 -28 43 -12 53 5 4 12 0
14 -6 3 -7 6 -1 6 15 1 33 21 36 21 3z m-3426 -23 c-4 -16 -11 -32 -16 -38 -6
-7 -8 -7 -7 0 2 6 -2 20 -9 31 -13 24 -7 34 20 34 15 0 17 -5 12 -27z m-52
-55 c-3 -14 -2 -19 6 -14 7 4 12 2 12 -3 0 -6 -4 -11 -9 -11 -15 0 -24 19 -17
35 8 23 15 18 8 -7z m3478 -28 c0 -5 -4 -10 -10 -10 -5 0 -10 5 -10 10 0 6 5
10 10 10 6 0 10 -4 10 -10z m-3490 -31 c0 -11 -4 -18 -10 -14 -5 3 -7 12 -3
20 7 21 13 19 13 -6z m3290 -163 c0 -3 -4 -8 -10 -11 -5 -3 -10 -1 -10 4 0 6
5 11 10 11 6 0 10 -2 10 -4z m65 -26 c10 -16 -14 -50 -35 -50 -18 0 -18 1 -2
30 18 31 27 36 37 20z m-71 -52 c6 -4 7 -10 3 -14 -11 -12 -36 16 -30 34 6 13
7 13 11 1 3 -7 10 -17 16 -21z m38 -53 c0 -14 -29 -31 -38 -22 -9 8 16 39 28
35 5 -2 10 -8 10 -13z m-42 -60 c0 -16 -27 -32 -37 -22 -3 4 -3 13 0 22 8 20
37 20 37 0z m-100 -41 c0 -2 -9 -4 -20 -4 -11 0 -20 4 -20 9 0 5 9 7 20 4 11
-3 20 -7 20 -9z m2160 -354 c0 -5 -2 -10 -4 -10 -3 0 -8 5 -11 10 -3 6 -1 10
4 10 6 0 11 -4 11 -10z m287 -92 c-3 -8 -6 -5 -6 6 -1 11 2 17 5 13 3 -3 4
-12 1 -19z m-5338 -214 c14 0 26 -4 28 -10 2 -5 -6 -10 -17 -10 -11 0 -20 5
-20 10 0 5 -3 6 -7 3 -8 -9 -33 12 -33 27 0 6 6 4 13 -4 7 -9 23 -16 36 -16z
m31 -124 c0 -5 -4 -10 -10 -10 -5 0 -10 5 -10 10 0 6 5 10 10 10 6 0 10 -4 10
-10z m50 -60 c-8 -5 -17 -7 -19 -4 -3 3 1 9 9 14 8 5 17 7 19 4 3 -3 -1 -9 -9
-14z m-35 0 c3 -5 1 -10 -4 -10 -6 0 -11 5 -11 10 0 6 2 10 4 10 3 0 8 -4 11
-10z"/>
<path d="M4538 3753 c-10 -2 -18 -9 -18 -14 0 -13 12 -11 34 6 20 15 16 17
-16 8z"/>
<path d="M2785 3721 c-38 -10 -81 -17 -95 -16 -14 2 -28 -2 -32 -8 -4 -6 -26
-12 -50 -13 -52 -2 -125 -21 -133 -35 -8 -11 43 -5 165 21 47 10 103 22 125
25 22 4 44 10 50 13 5 4 26 12 45 18 55 18 3 14 -75 -5z"/>
<path d="M7398 3713 c6 -2 18 -2 25 0 6 3 1 5 -13 5 -14 0 -19 -2 -12 -5z"/>
<path d="M7448 3703 c6 -2 18 -2 25 0 6 3 1 5 -13 5 -14 0 -19 -2 -12 -5z"/>
<path d="M4245 3090 c-3 -5 1 -10 9 -10 8 0 18 5 21 10 3 6 -1 10 -9 10 -8 0
-18 -4 -21 -10z"/>
<path d="M4205 3061 c-3 -5 0 -13 6 -17 7 -4 9 -3 5 4 -3 6 2 13 11 15 16 4
16 5 1 6 -9 0 -19 -3 -23 -8z"/>
<path d="M4400 3033 c-14 -14 -33 -32 -42 -40 -10 -9 -18 -21 -18 -26 0 -6 9
0 20 13 11 13 20 18 20 12 0 -7 5 -12 11 -12 6 0 9 7 6 15 -4 8 4 22 19 34 13
11 21 21 17 23 -4 3 -19 -6 -33 -19z"/>
<path d="M4140 3000 c-24 -21 -42 -41 -40 -44 3 -2 28 15 55 40 28 24 46 44
40 44 -5 0 -30 -18 -55 -40z"/>
<path d="M4426 3013 c-6 -14 -5 -15 5 -6 7 7 10 15 7 18 -3 3 -9 -2 -12 -12z"/>
<path d="M4290 2929 c-50 -56 -50 -56 -3 -18 24 19 43 40 43 47 0 16 0 16 -40
-29z"/>
<path d="M4053 2927 c-34 -23 -46 -45 -15 -28 16 9 60 52 51 50 -2 0 -19 -10
-36 -22z"/>
<path d="M6683 2875 c-11 -34 -10 -35 14 -35 18 0 24 -4 20 -14 -5 -12 11 -26
29 -26 7 0 -7 52 -23 83 -18 36 -27 34 -40 -8z"/>
<path d="M6380 2898 c-1 -19 25 -58 39 -58 13 0 13 1 -1 13 -8 6 -20 21 -26
32 -6 11 -12 17 -12 13z"/>
<path d="M6427 2885 c-4 -8 -1 -17 6 -21 7 -4 9 -4 5 1 -4 4 -3 14 3 22 7 8 8
13 1 13 -5 0 -12 -7 -15 -15z"/>
<path d="M3979 2863 c-12 -16 -12 -17 2 -6 9 7 19 10 22 6 4 -3 7 -1 7 5 0 17
-16 15 -31 -5z"/>
<path d="M6460 2850 c0 -11 4 -20 8 -20 4 0 8 9 8 20 0 11 -4 20 -8 20 -4 0
-8 -9 -8 -20z"/>
<path d="M6584 2837 c3 -10 6 -25 6 -33 0 -8 5 -14 11 -14 12 0 2 40 -14 55
-7 7 -8 4 -3 -8z"/>
<path d="M3940 2829 c0 -5 5 -7 10 -4 6 3 10 8 10 11 0 2 -4 4 -10 4 -5 0 -10
-5 -10 -11z"/>
<path d="M6677 2809 c4 -16 8 -17 14 -7 13 19 11 28 -5 28 -9 0 -12 -7 -9 -21z"/>
<path d="M3853 2754 c-57 -56 -60 -60 -18 -26 54 43 103 92 92 92 -4 0 -37
-30 -74 -66z"/>
<path d="M4150 2797 c-14 -12 -36 -30 -50 -40 -18 -12 -20 -17 -8 -17 9 0 18
3 20 8 2 4 20 22 41 40 21 17 34 32 30 32 -5 0 -19 -10 -33 -23z"/>
<path d="M6773 2805 c-9 -9 -9 -16 -2 -20 6 -4 11 -5 12 -4 2 2 9 12 16 22 11
14 11 17 0 17 -8 -1 -20 -7 -26 -15z"/>
<path d="M6920 2781 c0 -6 4 -13 10 -16 6 -3 7 1 4 9 -7 18 -14 21 -14 7z"/>
<path d="M6348 2773 c7 -3 16 -2 19 1 4 3 -2 6 -13 5 -11 0 -14 -3 -6 -6z"/>
<path d="M6760 2771 c0 -5 7 -11 15 -15 8 -3 15 -1 15 3 0 5 -7 11 -15 15 -8
3 -15 1 -15 -3z"/>
<path d="M7020 2772 c0 -12 19 -26 26 -19 2 2 -2 10 -11 17 -9 8 -15 8 -15 2z"/>
<path d="M4056 2715 c-11 -8 -15 -15 -9 -15 6 0 16 7 23 15 16 19 11 19 -14 0z"/>
<path d="M4385 2700 c-3 -5 -1 -10 4 -10 6 0 11 5 11 10 0 6 -2 10 -4 10 -3 0
-8 -4 -11 -10z"/>
<path d="M6738 2683 c7 -3 16 -2 19 1 4 3 -2 6 -13 5 -11 0 -14 -3 -6 -6z"/>
<path d="M8646 2675 c-4 -11 0 -25 10 -37 23 -25 27 -17 11 22 -12 26 -15 29
-21 15z"/>
<path d="M3755 2670 c-3 -5 -1 -10 4 -10 6 0 11 5 11 10 0 6 -2 10 -4 10 -3 0
-8 -4 -11 -10z"/>
<path d="M4000 2671 c0 -6 4 -13 10 -16 6 -3 7 1 4 9 -7 18 -14 21 -14 7z"/>
<path d="M6795 2670 c11 -5 29 -8 40 -8 16 0 15 2 -5 8 -34 11 -60 11 -35 0z"/>
<path d="M3634 2556 c-54 -52 -103 -92 -108 -89 -5 4 -6 1 -3 -4 4 -6 -8 -25
-27 -41 -19 -17 -32 -32 -29 -35 2 -3 21 11 41 32 27 27 44 36 65 35 28 -3 36
9 15 22 -7 5 -8 3 -3 -6 6 -9 4 -11 -5 -5 -10 6 -9 11 5 22 11 7 25 13 32 13
7 0 13 7 13 15 0 8 7 15 16 15 9 0 12 5 8 11 -4 7 -1 10 7 7 18 -6 59 32 59
55 0 11 8 26 18 33 9 7 12 14 6 14 -6 0 -56 -42 -110 -94z"/>
<path d="M7008 2623 c7 -3 16 -2 19 1 4 3 -2 6 -13 5 -11 0 -14 -3 -6 -6z"/>
<path d="M3878 2561 c-32 -31 -58 -60 -58 -62 0 -17 33 -2 41 18 5 13 14 23
20 23 16 0 80 66 72 74 -10 10 -16 6 -75 -53z"/>
<path d="M108 2568 c-5 -13 -11 -300 -9 -406 1 -21 6 -19 75 28 40 27 78 50
83 50 19 0 50 56 56 103 6 40 4 47 -11 48 -9 1 -26 3 -37 4 -11 1 -30 2 -42 3
-13 1 -23 8 -23 14 0 22 -43 117 -51 113 -9 -6 -26 15 -31 40 -3 17 -4 18 -10
3z"/>
<path d="M3790 2475 c0 -8 4 -15 10 -15 5 0 7 7 4 15 -4 8 -8 15 -10 15 -2 0
-4 -7 -4 -15z"/>
<path d="M8661 2445 c0 -22 3 -47 9 -55 16 -26 19 -5 5 45 l-13 50 -1 -40z"/>
<path d="M3715 2404 c-22 -23 -40 -46 -40 -51 0 -6 -66 -69 -83 -79 -2 -2 -4
-19 -5 -39 -1 -24 -5 -34 -13 -31 -7 3 0 -15 14 -39 15 -25 30 -45 33 -45 14
0 32 59 32 103 -1 26 3 47 8 47 4 0 6 6 3 13 -2 7 9 20 26 30 16 10 37 31 45
47 8 16 23 31 33 35 14 4 18 12 14 30 -6 34 -20 30 -67 -21z m-70 -133 c-3 -6
-11 -11 -17 -11 -6 0 -6 6 2 15 14 17 26 13 15 -4z"/>
<path d="M4088 2443 c7 -3 16 -2 19 1 4 3 -2 6 -13 5 -11 0 -14 -3 -6 -6z"/>
<path d="M3900 2390 c-21 -7 -21 -8 -5 -9 11 0 27 4 35 9 18 11 5 11 -30 0z"/>
<path d="M3830 2360 c0 -5 7 -7 15 -4 8 4 15 8 15 10 0 2 -7 4 -15 4 -8 0 -15
-4 -15 -10z"/>
<path d="M3320 2350 c8 -5 20 -10 25 -10 6 0 3 5 -5 10 -8 5 -19 10 -25 10 -5
0 -3 -5 5 -10z"/>
<path d="M3440 2349 c0 -5 5 -7 10 -4 6 3 10 8 10 11 0 2 -4 4 -10 4 -5 0 -10
-5 -10 -11z"/>
<path d="M3422 2301 c-6 -16 -8 -32 -5 -35 4 -3 1 -6 -5 -6 -7 0 -12 -5 -12
-11 0 -5 5 -7 10 -4 6 3 10 -1 10 -9 0 -9 -4 -16 -9 -16 -14 0 -1 -37 20 -56
15 -13 22 -15 31 -6 9 9 7 21 -9 49 -14 27 -19 50 -15 81 5 49 -2 54 -16 13z"/>
<path d="M3504 2190 c15 -25 39 -66 54 -92 15 -26 33 -48 41 -48 11 0 9 4 -5
14 -10 8 -16 17 -12 21 9 9 -44 94 -78 125 l-27 25 27 -45z"/>
<path d="M218 2173 c-15 -16 -32 -41 -37 -56 -10 -25 -15 -28 -41 -22 -25 6
-31 3 -41 -18 -8 -18 -8 -30 1 -47 10 -19 17 -21 47 -15 20 4 64 2 97 -4 34
-5 106 -15 161 -22 155 -18 217 -27 254 -35 23 -5 32 -4 28 4 -4 5 -26 13 -50
17 -55 9 -261 76 -265 87 -2 4 -10 8 -18 8 -8 0 -14 7 -14 15 0 8 -11 22 -24
30 -13 9 -32 32 -41 51 -9 19 -19 34 -24 34 -4 0 -19 -12 -33 -27z"/>
<path d="M3460 2140 c-8 -5 -12 -11 -10 -12 16 -12 60 -38 65 -38 3 0 -1 14
-10 30 -17 32 -22 35 -45 20z"/>
<path d="M7426 2113 c-6 -14 -5 -15 5 -6 7 7 10 15 7 18 -3 3 -9 -2 -12 -12z"/>
<path d="M1061 2071 c-1 -16 -5 -21 -16 -18 -8 4 -16 3 -19 -1 -3 -4 4 -9 15
-9 21 -2 34 18 26 39 -3 7 -6 2 -6 -11z"/>
<path d="M1000 2059 c0 -5 5 -7 10 -4 6 3 10 8 10 11 0 2 -4 4 -10 4 -5 0 -10
-5 -10 -11z"/>
<path d="M980 2022 c-8 -9 -14 -21 -12 -25 5 -16 -9 -47 -19 -42 -5 4 -9 1 -9
-5 0 -6 -5 -8 -12 -4 -8 5 -9 0 -5 -17 5 -22 5 -22 -7 -6 -13 17 -14 17 -20 0
-3 -10 -9 -24 -12 -31 -4 -10 1 -13 17 -10 14 2 29 14 37 31 7 15 17 27 21 27
5 0 12 11 15 25 4 14 11 23 16 20 5 -3 7 4 5 16 -3 15 0 19 10 15 8 -3 17 0
21 6 4 7 3 8 -4 4 -7 -4 -12 -2 -12 3 0 16 -13 13 -30 -7z"/>
<path d="M3597 2027 c4 -7 8 -18 9 -24 1 -7 16 -35 33 -63 32 -52 39 -76 19
-64 -7 5 -8 3 -4 -5 5 -7 10 -10 14 -7 3 3 11 -2 18 -12 16 -20 18 -36 4 -27
-5 3 -10 2 -10 -4 0 -15 39 -9 45 7 2 7 0 10 -5 7 -6 -3 -10 1 -10 9 0 9 -5
16 -11 16 -6 0 -9 7 -5 15 3 8 1 15 -3 15 -11 0 -54 70 -54 87 0 7 -4 10 -8 7
-5 -2 -7 7 -6 22 1 19 -3 28 -16 30 -11 1 -14 -2 -10 -9z"/>
<path d="M941 1984 c0 -11 3 -14 6 -6 3 7 2 16 -1 19 -3 4 -6 -2 -5 -13z"/>
<path d="M7170 1940 c0 -5 5 -10 10 -10 6 0 10 5 10 10 0 6 -4 10 -10 10 -5 0
-10 -4 -10 -10z"/>
<path d="M285 1927 c-12 -10 -14 -16 -7 -21 7 -4 12 -4 12 0 0 13 59 -70 60
-84 0 -7 11 -18 25 -24 21 -9 37 -48 20 -48 -20 0 -114 98 -137 141 -11 22
-25 39 -32 39 -21 0 -56 -12 -56 -19 0 -10 32 -51 59 -75 14 -11 33 -29 43
-38 10 -10 23 -18 29 -18 6 0 9 -6 6 -12 -2 -8 -17 -12 -35 -10 -46 5 -41 -14
19 -77 36 -38 55 -51 67 -46 40 16 136 24 152 12 27 -20 50 -52 50 -69 0 -10
5 -18 10 -18 6 0 10 -11 10 -24 0 -13 10 -30 23 -39 12 -8 19 -18 15 -23 -5
-4 -16 0 -26 9 -27 24 -36 21 -50 -15 -11 -30 -9 -36 23 -85 19 -29 32 -53 29
-53 -4 0 0 -8 9 -18 10 -11 14 -26 10 -40 -3 -15 0 -24 11 -28 18 -7 76 14 76
27 0 5 6 9 14 9 8 0 17 8 21 19 3 10 11 18 18 18 45 -1 67 7 105 41 23 21 42
42 42 47 0 6 10 15 23 20 12 6 23 20 25 33 3 18 -1 22 -21 22 -38 0 -53 25
-39 62 10 27 9 33 -6 44 -26 20 -59 17 -65 -6 -7 -28 -32 -35 -76 -20 -29 9
-53 31 -97 88 -109 140 -224 267 -251 279 -37 16 -85 16 -108 0z m615 -487 c0
-5 -4 -10 -10 -10 -5 0 -10 5 -10 10 0 6 5 10 10 10 6 0 10 -4 10 -10z"/>
<path d="M1000 1900 c0 -6 -4 -8 -10 -5 -5 3 -10 -1 -10 -10 0 -9 -4 -14 -9
-11 -4 3 -16 -3 -25 -13 -11 -13 -14 -21 -7 -26 16 -9 31 3 24 21 -3 8 -2 14
3 12 15 -5 57 29 45 37 -6 3 -11 1 -11 -5z"/>
<path d="M7162 1878 c-16 -16 -15 -25 2 -25 8 0 17 9 19 19 6 21 -4 23 -21 6z"/>
<path d="M7161 1824 c0 -11 3 -14 6 -6 3 7 2 16 -1 19 -3 4 -6 -2 -5 -13z"/>
<path d="M3788 1823 c7 -3 16 -2 19 1 4 3 -2 6 -13 5 -11 0 -14 -3 -6 -6z"/>
<path d="M7156 1791 c-4 -7 -5 -15 -2 -18 9 -9 19 4 14 18 -4 11 -6 11 -12 0z"/>
<path d="M7351 1774 c0 -11 3 -14 6 -6 3 7 2 16 -1 19 -3 4 -6 -2 -5 -13z"/>
<path d="M7145 1740 c-3 -5 1 -10 9 -10 9 0 16 5 16 10 0 6 -4 10 -9 10 -6 0
-13 -4 -16 -10z"/>
<path d="M3780 1720 c0 -5 5 -10 11 -10 5 0 7 5 4 10 -3 6 -8 10 -11 10 -2 0
-4 -4 -4 -10z"/>
<path d="M971 1704 c0 -11 3 -14 6 -6 3 7 2 16 -1 19 -3 4 -6 -2 -5 -13z"/>
<path d="M7137 1700 c-3 -8 -11 -41 -17 -72 -11 -54 -23 -73 -32 -47 -2 7 -9
5 -17 -5 -12 -14 -11 -16 8 -16 22 0 25 -7 15 -34 -3 -9 -11 -13 -16 -10 -6 4
-14 0 -19 -7 -14 -22 -10 -33 6 -19 13 11 15 8 15 -19 0 -17 -3 -31 -7 -31 -5
0 -17 -7 -27 -15 -19 -14 -19 -16 -2 -28 14 -10 15 -17 6 -41 -7 -19 -15 -26
-25 -22 -18 7 -18 1 0 -49 13 -36 14 -37 15 -12 0 15 4 27 9 27 9 0 18 30 36
120 14 71 40 165 47 168 5 2 6 8 2 13 -3 5 0 25 6 44 12 36 9 85 -3 55z"/>
<path d="M1010 1379 c0 -6 -9 -8 -20 -4 -16 5 -20 2 -20 -15 0 -21 -30 -38
-80 -45 -48 -6 -76 -23 -138 -84 -62 -62 -63 -62 -92 -48 -26 14 -30 13 -45
-3 -10 -11 -17 -35 -17 -54 0 -20 -4 -36 -9 -36 -5 0 -9 -12 -9 -27 0 -17 -3
-23 -8 -16 -4 7 -7 -28 -5 -77 1 -64 -2 -93 -11 -103 -9 -8 -13 -32 -11 -68 2
-30 -2 -57 -7 -60 -5 -4 -11 -28 -14 -55 -9 -121 -19 -173 -33 -184 -12 -9
-41 -164 -35 -187 4 -14 2 -23 -5 -23 -6 0 -11 -6 -11 -14 0 -18 -71 -26 -227
-26 -75 0 -123 -4 -123 -10 0 -5 5 -10 11 -10 5 0 7 -4 4 -10 -3 -5 3 -10 14
-10 12 0 21 5 21 11 0 7 34 8 100 5 55 -2 102 -1 105 4 3 4 19 7 36 6 16 -1
32 1 35 6 13 20 22 5 14 -23 -5 -17 -9 -34 -8 -38 1 -3 -1 -13 -5 -21 -17 -47
-26 -84 -21 -89 8 -8 771 -14 800 -7 20 5 22 10 14 30 -14 38 -2 66 29 66 20
-1 30 -10 47 -43 l20 -42 135 -2 c74 -1 128 1 122 3 -7 3 -13 12 -13 19 0 7
-16 36 -35 64 -19 28 -35 57 -35 66 0 8 -4 15 -8 15 -4 0 -14 27 -21 60 -8 33
-17 60 -21 60 -5 0 -14 17 -21 37 -7 21 -29 54 -49 74 -36 36 -37 39 -43 133
-8 125 -23 176 -51 176 -12 0 -30 7 -40 15 -11 8 -17 15 -13 15 4 0 3 9 -3 20
-6 11 -17 20 -25 20 -9 0 -25 11 -37 25 -12 14 -31 25 -42 25 -35 0 -49 15
-42 43 4 19 1 29 -11 36 -16 9 -16 10 5 11 15 0 22 6 22 20 0 14 -7 20 -22 21
-17 1 -19 2 -5 6 20 5 21 13 5 48 -8 18 -14 22 -20 13 -6 -10 -8 -8 -8 5 0 10
-8 17 -19 17 -22 0 -51 40 -51 70 0 18 -3 19 -20 10 -16 -8 -22 -8 -26 4 -7
19 13 56 31 56 8 0 15 4 15 9 0 4 11 20 25 33 23 23 46 88 31 88 -3 0 -6 -5
-6 -11z m-119 -186 c-11 -5 -11 -7 0 -14 10 -6 11 -9 2 -9 -7 0 -13 -6 -14
-12 0 -15 -76 -78 -94 -78 -6 0 -20 9 -30 20 -16 18 -16 20 -2 20 10 0 17 7
17 15 0 8 7 15 16 15 8 0 13 4 10 9 -3 4 6 7 20 5 15 -1 33 5 42 16 9 10 24
18 32 18 12 0 12 -1 1 -5z m-274 -65 c-3 -8 -6 -5 -6 6 -1 11 2 17 5 13 3 -3
4 -12 1 -19z m333 -32 c0 -9 -40 -13 -46 -5 -3 5 6 9 20 9 14 0 26 -2 26 -4z
m-70 -84 c0 -5 -18 -17 -40 -27 -50 -22 -55 -53 -10 -61 35 -8 37 -15 10 -39
-19 -17 -19 -20 -4 -36 16 -18 13 -49 -5 -49 -13 0 -21 14 -48 80 -25 59 -41
135 -25 112 8 -11 10 -11 14 0 3 8 23 15 44 16 21 2 40 5 43 7 7 8 21 6 21 -3z
m150 -82 c-20 -13 -43 -13 -35 0 3 6 16 10 28 10 18 0 19 -2 7 -10z m10 -61
c0 -15 -4 -19 -16 -15 -9 3 -18 6 -20 6 -2 0 -4 7 -4 15 0 8 9 15 20 15 14 0
20 -7 20 -21z m35 -30 c11 -17 -1 -21 -15 -4 -8 9 -8 15 -2 15 6 0 14 -5 17
-11z m-147 -81 c26 -66 38 -143 23 -152 -6 -4 -16 5 -22 21 -21 50 -43 93 -50
93 -13 0 -19 74 -6 82 24 15 34 7 55 -44z m98 -204 c4 -14 17 -36 30 -49 18
-18 24 -35 24 -70 0 -25 -3 -45 -7 -45 -17 0 -30 17 -41 49 -7 19 -20 40 -31
47 -26 18 -32 49 -14 73 19 28 31 26 39 -5z m120 -182 c22 -14 60 -121 56
-157 -2 -19 -9 -35 -14 -35 -13 0 -38 26 -38 41 0 6 -13 34 -30 61 -33 53 -36
68 -18 86 14 14 28 15 44 4z"/>
<path d="M6985 1320 c3 -5 8 -10 11 -10 2 0 4 5 4 10 0 6 -5 10 -11 10 -5 0
-7 -4 -4 -10z"/>
<path d="M3890 1180 c0 -5 5 -10 11 -10 5 0 7 5 4 10 -3 6 -8 10 -11 10 -2 0
-4 -4 -4 -10z"/>
<path d="M7025 1060 c3 -5 8 -10 11 -10 2 0 4 5 4 10 0 6 -5 10 -11 10 -5 0
-7 -4 -4 -10z"/>
<path d="M1098 1033 c7 -3 16 -2 19 1 4 3 -2 6 -13 5 -11 0 -14 -3 -6 -6z"/>
<path d="M3950 1000 c0 -8 5 -22 10 -30 9 -13 10 -13 10 0 0 8 -5 22 -10 30
-9 13 -10 13 -10 0z"/>
<path d="M6941 905 c-1 -23 -4 -27 -11 -15 -5 8 -10 11 -10 5 0 -5 4 -17 9
-24 8 -12 11 -9 16 12 4 14 5 32 2 39 -3 7 -6 0 -6 -17z"/>
<path d="M9110 850 c0 -5 7 -7 15 -4 8 4 15 8 15 10 0 2 -7 4 -15 4 -8 0 -15
-4 -15 -10z"/>
<path d="M6921 836 c-8 -10 -9 -16 -1 -21 5 -3 13 1 16 10 9 22 -1 29 -15 11z"/>
<path d="M6922 780 c0 -14 2 -19 5 -12 2 6 2 18 0 25 -3 6 -5 1 -5 -13z"/>
<path d="M6913 705 c0 -27 2 -38 4 -22 2 15 2 37 0 50 -2 12 -4 0 -4 -28z"/>
<path d="M6890 637 c0 -17 5 -27 15 -27 19 0 19 9 0 34 -14 19 -15 19 -15 -7z"/>
<path d="M6889 588 c-1 -6 -10 -155 -10 -178 -1 -14 -4 -27 -9 -30 -10 -6 -1
-60 10 -60 4 0 10 51 14 113 4 61 10 122 13 135 3 13 1 22 -6 22 -6 0 -11 -1
-12 -2z"/>
<path d="M240 490 c-63 -4 -123 -8 -132 -9 -15 -1 -18 -11 -18 -55 l0 -55 48
-4 47 -3 -47 -2 -48 -2 0 -45 0 -45 167 6 c93 4 170 8 172 10 4 3 23 113 33
189 3 18 -3 20 -52 21 -30 1 -107 -2 -170 -6z"/>
<path d="M6870 286 c0 -8 -4 -16 -9 -18 -12 -4 -2 -58 10 -58 5 0 9 20 9 45 0
25 -2 45 -5 45 -3 0 -5 -6 -5 -14z"/>
<path d="M6920 211 c0 -32 -20 -54 -21 -24 0 16 -1 16 -8 -1 -7 -19 -8 -19
-15 0 -7 18 -8 17 -21 -6 -7 -14 -11 -28 -9 -32 3 -4 1 -23 -4 -41 l-10 -34
64 -2 64 -2 0 33 -1 33 -14 -30 -13 -30 -2 35 c-2 19 -2 56 0 83 1 26 -1 47
-4 47 -3 0 -6 -13 -6 -29z m-30 -78 c0 -16 -5 -35 -11 -43 -8 -11 -9 -8 -4 13
3 17 1 35 -6 43 -9 11 -8 14 5 14 11 0 16 -9 16 -27z"/>
<path d="M4230 189 c0 -5 5 -7 10 -4 6 3 10 8 10 11 0 2 -4 4 -10 4 -5 0 -10
-5 -10 -11z"/>
<path d="M3340 163 c-46 -8 -71 -75 -32 -87 26 -8 202 -6 202 3 0 4 14 7 30 6
17 0 30 -3 30 -7 0 -5 7 -8 15 -8 12 0 13 4 3 25 -6 14 -16 21 -22 17 -16 -10
-46 -13 -46 -4 0 13 20 38 20 25 0 -7 5 -13 10 -13 17 0 11 29 -8 39 -21 11
-72 3 -72 -12 0 -7 -4 -7 -12 1 -15 15 -31 16 -22 1 4 -7 1 -10 -7 -7 -8 3
-13 11 -11 17 2 11 -28 13 -78 4z m55 -23 c3 -5 1 -10 -4 -10 -6 0 -11 5 -11
10 0 6 2 10 4 10 3 0 8 -4 11 -10z m95 -45 c-7 -8 -16 -15 -21 -15 -15 0 -10
19 9 38 13 13 18 14 20 4 2 -7 -2 -19 -8 -27z"/>
<path d="M4260 99 c0 -5 5 -7 10 -4 6 3 10 8 10 11 0 2 -4 4 -10 4 -5 0 -10
-5 -10 -11z"/>
</g>
</svg>
