<?xml version="1.0" encoding="utf-8"?>
<!-- Generator: Adobe Illustrator 26.1.0, SVG Export Plug-In . SVG Version: 6.00 Build 0)  -->
<svg version="1.1" xmlns="http://www.w3.org/2000/svg" xmlns:xlink="http://www.w3.org/1999/xlink" x="0px" y="0px"
	 viewBox="0 0 2500 1021" style="enable-background:new 0 0 2500 1021;" xml:space="preserve">
<style type="text/css">
	.st0{fill:#808080;}
	.st1{opacity:0.1;enable-background:new    ;}
	.st2{fill:url(#SVGID_1_);}
	.st3{fill:url(#SVGID_00000113354549447237479460000012765081225445090985_);}
	.st4{fill:#333333;}
	.st5{opacity:0.3;fill:#FFFFFF;enable-background:new    ;}
	.st6{opacity:0.5;}
	.st7{fill:#FFFFFF;}
	.st8{fill:url(#SVGID_00000040532617262665798510000008264358256914794904_);}
	.st9{fill:none;}
</style>
<g id="Layer_2">
	<rect x="-683.3" y="-673.5" class="st0" width="3950.9" height="2322.2"/>
</g>
<g id="Layer_1">
	<path class="st1" d="M2242.7,21.2c-0.5,1.9-0.5,3.9,0,5.8c0,0,6.3,41.4-1,59.9l-300.2,781.2c-21.4,57.5,7.3,121.3,64.8,143.3
		c57.5,21.9,121.3-6.3,144.3-63.4l300.2-781.2c5.8-15.1,39.5-44.8,39.5-44.8c1.5-1.5,2.9-2.9,3.9-4.4v-0.5c0-0.5,0.5-0.5,0.5-1
		c7.8-20-42.4-58-111.6-84.8C2313.8,4.6,2251-0.7,2243.2,19.7C2243.2,19.7,2242.7,20.2,2242.7,21.2z"/>
	
		<linearGradient id="SVGID_1_" gradientUnits="userSpaceOnUse" x1="289.7227" y1="1050.5109" x2="290.1709" y2="1050.4153" gradientTransform="matrix(561.0149 0 0 -1011.5933 -160478.6562 1063156)">
		<stop  offset="0" style="stop-color:#919191"/>
		<stop  offset="1" style="stop-color:#FFFFFF"/>
	</linearGradient>
	<path class="st2" d="M2233.9,14.4c-0.5,2-0.5,3.9,0,5.8c0,0,6.3,41.4-1,59.9l-300.2,781.2c-21.4,57.5,7.3,121.3,64.8,143.3
		s121.3-6.3,144.2-63.3L2442,160.1c5.8-15.1,39.5-44.8,39.5-44.8c1.5-1.5,2.9-2.9,3.9-4.4v-0.5c0-0.5,0.5-0.5,0.5-1
		c7.8-20-42.4-58-111.6-84.8c-69.2-26.8-132.1-32.2-139.9-11.7C2234.4,13.4,2234.4,13.9,2233.9,14.4L2233.9,14.4z"/>
	
		<linearGradient id="SVGID_00000129912954472946877080000010770534896806851235_" gradientUnits="userSpaceOnUse" x1="289.4882" y1="1050.5289" x2="289.8953" y2="1050.4337" gradientTransform="matrix(373.6914 0 0 -614.1079 -106125.7344 645766.0625)">
		<stop  offset="0" style="stop-color:#990000"/>
		<stop  offset="1" style="stop-color:#E80000"/>
	</linearGradient>
	<path style="fill:url(#SVGID_00000129912954472946877080000010770534896806851235_);" d="M2328.5,367.7L2111.6,931
		c-16.1,40.4-62.4,61.4-103.8,45.3c-41.4-16.1-63.4-63.4-48.2-103.8L2098,512.4c0,0,17.1-27.8,51.2-47.8
		c34.1-20,61.9-15.6,99.4-32.2C2286.5,415.9,2328.5,367.7,2328.5,367.7L2328.5,367.7z"/>
	<path class="st4" d="M2433.6,93.1c4.3-11.3-26.8-33.8-69.4-50.2c-42.7-16.5-80.8-20.7-85.1-9.4c-4.3,11.3,26.8,33.8,69.4,50.2
		C2391.2,100.2,2429.3,104.4,2433.6,93.1L2433.6,93.1z"/>
	<path class="st5" d="M2231.9,20.2c0,0,6.3,41.3-1,59.8l-298.2,779c-21.3,57.3,7.3,121,64.4,142.9c9.7,3.9,19.8,6.3,30,6.8
		c-39.2-30-54.3-82-37.3-128.3l292.4-763.4C2282.3,116.9,2242.1,79.5,2231.9,20.2L2231.9,20.2z"/>
	<g transform="translate(420.01 104.5)" class="st6">
		<ellipse class="st7" cx="1716" cy="418.1" rx="8.7" ry="8.7"/>
		<ellipse class="st7" cx="1772.7" cy="480.8" rx="13.1" ry="13.1"/>
		<ellipse class="st7" cx="1686" cy="555.7" rx="24.7" ry="24.8"/>
		<ellipse class="st7" cx="1646.3" cy="601.4" rx="13.1" ry="13.1"/>
		<ellipse class="st7" cx="1698.1" cy="698.5" rx="8.7" ry="8.7"/>
	</g>
	<path class="st1" d="M588.2,474.5c13.2,10.7,37,4.4,53.1-13.1c17.1-18.5,19.5-42.3,6.3-53c-13.2-10.7-37-4.4-53.1,14.1
		C577.5,441,574.6,464.3,588.2,474.5L588.2,474.5z M548.7,509c-3.4,0-9.8,6.3-4.4,8.7c7.3,2.4,10.7,8.7,10.7,17.5
		c-6.3,36.4-51.7,77.8-69.2,91.8c-4.4,4.4,1.9,14.1,6.3,10.7c9.7-7.8,30.2-23.8,46.8-45.2c-27.3,60.7-80.9,139.5-101.4,167.2
		C357.7,870.1,236.4,971.7,153,971.7c-66.8,0-123.3-45.2-135.5-111.3c-1-7.3-10.7-8.8-8.8,1c15.1,90.9,85.3,126.3,170.1,126.3
		c93.1,0,202.2-67.1,262.7-136.1c97.5-111.3,160.3-239.6,143.8-312C578.5,512.9,559.5,508.6,548.7,509L548.7,509z M1147.7,751.5
		c25.8-6.3,46.8-20.4,46.8-42.8c0-2.4-4.4-2.4-4.4,0c0,13.1-15.1,24.3-32.2,26.7c-40,6.3-118.9-40.3-155.9-88.4
		c40,15.1,121.3-6.8,159.8-34.5c35.6-25.8,49.7-53.9,52.1-76.8c4.4-37.9-37-60.3-95-37.9c-37,15.1-81.4,47.6-127.7,108.9
		c48.7-80.2,144.7-211.4,238.8-295c114.5-101.6,180.8-82.1,78,25.8c-42.4,44.2-122.3,101.6-177.4,126.3c-17.1,7.3-8.8,17,3.4,11.7
		c58.5-25.8,136.5-78.7,183.7-122.9c139.4-133.6,22.9-234.2-131.1-92.8c-104.8,96.2-173,196.8-232.5,327.5
		c-20.5,24.8-35.6,45.2-54.1,60.7c-2.4,1.9-3.9,3.9-5.4,5.8c-51.2,43.7-131.6,103-181.8,103.5c-35.6,1-50.7-25.8-44.3-60.3
		c9.7-53.9,65.8-117.6,113.5-139.5c61.9-28.2,98.4,26.7,17.1,70.5c-31.2,16-68.2,24.8-83.3,24.8c-17.5,0-16.1,7.3-1,7.8
		c24.9,1,64.8-9.7,91.1-21.9c83.3-39.8,88.7-114.2-2-116.6c-98.4-3.4-216.4,80.2-215.4,185.6c1,47.6,39,73.4,91.1,73.4
		c87.2-1,164.7-67.1,228.6-125.4c9.3-7.8,18-16,26.8-24.8c-22.4,56.4-33.6,108.9-28.3,147.7c3.4,28.2,19.5,41.3,32.2,52
		c2.4,1.9,7.8,0,4.4-5.4c-18.5-21.9-13.2-87.5,12.2-151.1C977.1,717,1060.4,771,1147.7,751.5L1147.7,751.5z M1042.9,567.4
		c101.9-90.9,141.8-9.7,77,39.8c-33.6,25.8-100.4,45.2-121.3,32.6l-4.4-2.4c-2.4-4.4-5.4-8.8-7.3-13.1
		C1003.9,603.3,1023.4,584.9,1042.9,567.4L1042.9,567.4z M1609.2,463.8c40.9,4.4,23.9-45.2-17.5-32.6c-18.5,5.3-36.5,40.8-49.7,71.4
		c-40.9,60.7-109.2,143.8-156.9,187.6c-42.4,36.4-81.4,46.2-33.6-21.9c19.5-27.2,44.4-56.4,58.5-85.5c33.6-73.4-38-105.9-96-61.7
		c-33.6,25.8-78.9,78.7-114.5,107.9c-9.7,7.8-7.3,19.4,2.4,11.7c28.3-22.8,78-75.3,120.9-105.9c35.6-27.2,49.7-9.7,29.2,13.1
		c-28.3,32.6-78,89.4-90.6,125.4c-17.5,53.9,3.4,77.8,39,77.8c48.7,0,121.3-75.8,170.1-136.1c16.1-20.4,33.6-44.2,48.7-67.1
		c-42.4,82.1-86.7,165.2-141.8,240.6c-78,105.9-175.4,185.6-268,185.6c-66.8,0-124.3-45.2-136.5-111.3c-1-7.3-9.7-8.8-8.8,1
		c15.1,90.9,85.3,126.3,170.1,126.3c93.1,0,182.7-53.9,245.6-120c126.7-133.6,141.8-283.8,180.8-367.9
		C1578.9,463.8,1595.5,462.4,1609.2,463.8L1609.2,463.8z M2124.8,335.5c18.5-31.6,17.5-56.4-25.8-56.4c-32.7,1-92.1,23.8-119.9,45.2
		c-6.3,6.3-3.4,9.7,4.4,6.3c5.4-1.9,11.7-5.3,17.5-7.8c31.2-17,18.5,18.5,11.7,31.6c-37,64.6-102.8,155.5-137.4,200.7
		c-16.4,22.1-34.2,43.2-53.1,63.2c-33.1,31.6-98.9,87.5-149.1,105.9c-161.3,60.3,44.3-213.8,61.4-236.2
		c38-47.6,123.3-130.7,149.1-172.5c18.5-31.6,17.5-56.4-25.8-56.4c-32.6,1-92.1,23.8-119.9,45.2c-6.3,6.3-3.4,9.7,4.4,6.3
		c5.4-1.9,11.7-5.3,17.5-7.8c31.2-17,18.5,18.5,11.7,31.6c-37,64.6-102.8,155.5-137.4,200.7c-28.3,37.9-62.9,75.8-89.7,97.2
		c-10.7,8.8-4.4,17,6.3,9.7c9.7-6.3,23.9-20.4,40-36.9c-29.2,58.3-53.1,140.4,23.9,150.2c65.8,8.7,143.8-57.8,194.4-107.4l18-18
		l4.4-4.4c-29.2,58.3-53.1,140.4,23.9,150.2c84.3,11.7,189.1-101.6,229.5-143.4c7.8-7.8,5.4-21.4-7.8-7.8
		c-23.9,24.8-104.8,98.2-163.3,120c-161.3,60.3,44.3-213.8,61.4-236.2C2013.6,460,2098.9,376.9,2124.8,335.5L2124.8,335.5z"/>
	
		<linearGradient id="SVGID_00000083071968399477793790000007525316119623853186_" gradientUnits="userSpaceOnUse" x1="290.3637" y1="1049.9655" x2="290.3637" y2="1050.9641" gradientTransform="matrix(2127.1675 0 0 -798.9282 -616588.375 839827.4375)">
		<stop  offset="0" style="stop-color:#1A1A1A"/>
		<stop  offset="0.4026" style="stop-color:#4A4A4C"/>
		<stop  offset="1" style="stop-color:#333333"/>
	</linearGradient>
	<path style="fill:url(#SVGID_00000083071968399477793790000007525316119623853186_);" d="M579.4,466.3c13.2,10.7,37,4.4,53.1-13.1
		c17.1-18.5,19.5-42.3,6.3-53c-13.2-10.7-37-4.4-53.1,14.1C568.7,432.7,566.3,455.6,579.4,466.3L579.4,466.3z M540.4,500.8
		c-3.4,0-9.7,6.3-4.4,8.7c7.3,2.4,10.7,8.7,10.7,17.5c-6.3,36.4-51.7,77.8-69.2,91.8c-4.4,4.4,2,14.1,6.3,10.7
		c9.8-7.8,30.2-23.8,46.8-45.2c-27.3,60.7-80.9,139.5-101.4,167.2c-79.9,110.3-201.3,211.9-284.6,211.9
		C78,963.4,21.4,918.2,9.3,852.1c-1-7.3-10.7-8.8-8.8,1C15.6,944,85.8,979.4,170.6,979.4c93.1,0,202.2-67.1,262.7-136.1
		c97.5-111.3,160.3-239.6,143.8-312C569.7,504.2,551.2,499.8,540.4,500.8L540.4,500.8z M1138.9,743.3c25.8-6.3,46.8-20.4,46.8-42.8
		c0-2.4-4.4-2.4-4.4,0c0,13.1-15.1,24.3-32.2,26.7c-40,6.3-118.9-40.3-155.9-88.4c40,15.1,121.3-6.8,159.8-34.5
		c35.6-25.8,49.7-53.9,52.1-76.8c4.4-37.9-37-60.3-95-37.9c-37,15.1-81.4,47.6-127.7,108.9c48.7-80.2,144.7-211.4,238.8-295
		c114.5-101.6,180.8-82.1,78,25.8c-42.4,44.2-122.3,101.6-177.4,126.3c-17.1,7.3-8.8,17,3.4,11.7c58.5-25.8,136.5-78.7,183.7-122.9
		c139.4-133.6,22.9-234.2-131.1-92.8c-104.8,95.7-173,196.8-232.5,327.5c-20.5,24.8-35.6,45.2-54.1,60.7c-2.4,1.9-3.9,3.9-5.4,5.8
		c-51.2,43.7-131.6,103-181.8,103.5c-35.6,1-50.7-25.8-44.3-60.3c9.7-53.9,65.8-117.6,113.5-139.5c61.9-28.2,98.4,26.7,17.1,70.5
		c-31.2,16-68.2,24.8-83.3,24.8c-17.5,0-16.1,7.3-1,7.8c24.9,1,64.8-9.7,91.1-21.9c83.3-39.8,88.7-114.2-2-116.6
		c-98.4-3.4-216.4,80.2-215.4,185.6c1,47.6,39,73.4,91.1,73.4c87.2-1,164.7-67.1,228.6-125.4c9.3-7.8,18-16,26.8-24.8
		c-22.4,56.4-33.6,108.9-28.3,147.7c3.4,28.2,19.5,41.3,32.2,52c2.4,1.9,7.8,0,4.4-5.3c-18.5-21.9-13.2-87.5,12.2-151.1
		C968.8,708.8,1052.1,762.7,1138.9,743.3L1138.9,743.3z M1034.1,558.6c101.9-90.9,141.8-9.7,77,39.9
		c-33.6,25.8-100.4,45.2-121.3,32.6l-4.4-2.4c-2.4-4.4-5.4-8.7-7.3-13.1C995.1,595.1,1014.6,576.1,1034.1,558.6L1034.1,558.6z
		 M1600.4,455.6c40.9,4.4,23.9-45.2-17.5-32.6c-18.5,5.3-36.6,40.8-49.7,71.4c-40.9,60.7-109.2,143.8-156.9,187.6
		c-42.4,36.4-81.4,46.2-33.6-21.9c19.5-27.2,44.3-56.4,58.5-85.5c33.6-73.4-38-105.9-96-61.7c-33.6,25.8-78.9,78.7-114.5,107.9
		c-9.7,7.8-7.3,19.4,2.4,11.7c28.3-22.8,78-75.3,120.9-105.9c35.6-27.2,49.7-9.7,29.2,13.1c-28.3,32.6-78,89.4-90.6,125.4
		c-17.5,53.9,3.4,77.7,39,77.7c48.7,0,121.3-75.8,170.1-136.1c16.1-20.4,33.6-44.2,48.7-67.1c-42.4,82.1-86.7,165.2-141.8,240.6
		c-78,105.9-175.4,185.6-268,185.6c-66.8,0-124.3-45.2-136.5-111.3c-1-7.3-9.7-8.8-8.8,1c15.1,90.9,85.3,126.3,170.1,126.3
		c93.1,0,182.7-53.9,245.6-120c126.7-133.6,141.8-283.8,180.8-367.9C1570.2,455.6,1587.2,453.6,1600.4,455.6L1600.4,455.6z
		 M2116,326.8c18.5-31.6,17.5-56.4-25.8-56.4c-32.7,1-92.1,23.8-119.9,45.2c-6.3,6.3-3.4,9.7,4.4,6.3c5.4-1.9,11.7-5.3,17.5-7.8
		c31.2-17,18.5,18.5,11.7,31.6c-37,64.6-102.8,155.5-137.4,200.7c-16.4,22.1-34.2,43.2-53.1,63.2c-33.1,31.6-98.9,87.5-149.1,105.9
		c-161.3,60.3,44.3-213.8,61.4-236.2c38-47.6,123.3-130.7,149.1-172.5c18.5-31.6,17.5-56.4-25.8-56.4c-32.7,1-92.1,23.8-119.9,45.2
		c-6.3,6.3-3.4,9.7,4.4,6.3c5.4-1.9,11.7-5.3,17.5-7.8c31.2-17,18.5,18.5,11.7,31.6c-37,64.6-102.8,155.5-137.4,200.7
		c-28.3,37.9-62.9,75.8-89.7,97.2c-10.7,8.7-4.4,17,6.3,9.7c9.7-6.3,23.9-20.4,40-36.9c-29.2,58.3-53.1,140.4,23.9,150.2
		c65.8,8.7,143.8-57.8,194.4-107.4l18-18l4.4-4.4c-29.2,58.3-53.1,140.4,23.9,150.2c84.3,11.7,189.1-101.6,229.5-143.4
		c7.8-7.8,5.4-21.4-7.8-7.8c-23.9,24.8-104.8,98.2-163.3,120c-161.3,60.3,44.3-213.8,61.4-236.2
		C2005.4,451.2,2090.2,368.1,2116,326.8L2116,326.8z"/>
	<rect x="-289.2" y="-166.4" class="st9" width="2981.4" height="1319.4"/>
	<rect x="-683.3" y="-997.6" class="st9" width="3575" height="3191.1"/>
</g>
</svg>
